<?xml version="1.0" encoding="UTF-8" standalone="no"?>
<!-- Created with Inkscape (http://www.inkscape.org/) -->

<svg
   width="50mm"
   height="50mm"
   viewBox="0 0 50.000001 50"
   version="1.1"
   id="svg2807"
   inkscape:version="1.2.2 (732a01da63, 2022-12-09)"
   sodipodi:docname="limbozok_logo.svg"
   xmlns:inkscape="http://www.inkscape.org/namespaces/inkscape"
   xmlns:sodipodi="http://sodipodi.sourceforge.net/DTD/sodipodi-0.dtd"
   xmlns="http://www.w3.org/2000/svg"
   xmlns:svg="http://www.w3.org/2000/svg">
  <sodipodi:namedview
     id="namedview2809"
     pagecolor="#ffffff"
     bordercolor="#666666"
     borderopacity="1.0"
     inkscape:showpageshadow="2"
     inkscape:pageopacity="0.0"
     inkscape:pagecheckerboard="0"
     inkscape:deskcolor="#d1d1d1"
     inkscape:document-units="mm"
     showgrid="false"
     inkscape:zoom="1.5304854"
     inkscape:cx="-29.075743"
     inkscape:cy="101.92845"
     inkscape:window-width="1920"
     inkscape:window-height="1009"
     inkscape:window-x="-8"
     inkscape:window-y="-8"
     inkscape:window-maximized="1"
     inkscape:current-layer="layer1" />
  <defs
     id="defs2804" />
  <g
     inkscape:label="Layer 1"
     inkscape:groupmode="layer"
     id="layer1"
     transform="translate(-83.187637,-107.06229)">
    <path
       style="fill:#6a9f60;fill-opacity:1;stroke:none;stroke-width:0.2;stroke-dasharray:none;stroke-opacity:0.635965"
       d="m 107.25973,153.8647 c -0.13359,-0.0976 -0.15455,-0.2603 -0.18714,-1.45129 -0.0202,-0.73771 -0.0529,-1.34128 -0.0728,-1.34128 -0.0198,0 -0.43502,0.20559 -0.92267,0.45688 -1.17832,0.60717 -1.11478,0.61354 -2.70904,-0.27161 -0.33662,-0.1869 -0.50447,-0.24401 -0.50557,-0.17205 -0.0197,1.27881 -0.30325,2.80872 -0.52069,2.80872 -0.36722,0 -0.4514,-0.81735 -0.28168,-2.73495 0.12204,-1.37877 0.13724,-1.38349 1.70653,-0.53044 1.33423,0.72527 1.04607,0.72034 2.35727,0.0404 1.7101,-0.88691 1.70135,-0.89354 1.69198,1.28258 -0.008,1.92702 -0.10109,2.24598 -0.55625,1.91313 z m -19.036486,-0.17221 c -0.10902,-0.43459 0.13907,-0.78028 1.7428,-2.4279 1.24709,-1.28122 1.17691,-1.29429 2.87486,0.53552 1.34183,1.44606 1.47539,1.62786 1.34634,1.83278 -0.20849,0.33107 -0.36227,0.2268 -1.7051,-1.15609 l -1.31608,-1.35537 -1.38802,1.38631 c -1.49915,1.49733 -1.48,1.48274 -1.5548,1.18475 z m 8.68049,0.1263 c -0.15294,-0.0968 -0.26631,-1.8672 -0.18591,-2.90298 l 0.0591,-0.76102 0.28219,-0.0751 c 0.70223,-0.18703 3.329826,0.0508 3.526056,0.31921 0.23567,0.32231 -0.0249,0.38894 -1.634036,0.41765 l -1.48888,0.0266 v 0.22484 0.22484 l 1.26987,0.0427 c 2.180476,0.0733 3.066116,0.59542 2.522436,1.48708 -0.40868,0.67028 -3.681656,1.41975 -4.350806,0.99628 z m 2.9878,-0.96696 c 1.303276,-0.40881 0.849816,-0.69612 -1.24006,-0.7857 l -1.18924,-0.051 v 0.54819 0.54817 l 0.94736,-0.046 c 0.62007,-0.0301 1.13204,-0.10396 1.48194,-0.21369 z m 14.789666,0.91603 c -0.98664,-0.19591 -1.61207,-0.75327 -1.21503,-1.08279 0.10868,-0.0902 0.21251,-0.0718 0.66925,0.11882 0.95895,0.40002 2.69928,0.37219 2.92351,-0.0467 0.20798,-0.38864 -0.27323,-0.72318 -1.3912,-0.96719 -1.06197,-0.23177 -1.17391,-0.31807 -0.90694,-0.69921 0.12503,-0.17852 0.12503,-0.17852 -0.48024,-0.12736 -1.09234,0.0924 -1.09556,-0.50466 -0.005,-0.73859 1.61209,-0.34548 1.95709,-0.2607 1.70518,0.419 -0.14342,0.38699 -0.16334,0.36019 0.37108,0.49909 2.91999,0.75894 1.34963,3.22489 -1.67163,2.62497 z m 14.16486,0.0375 c -0.0998,-0.0371 -0.51711,-0.26409 -0.92721,-0.50434 -0.41009,-0.24025 -0.93459,-0.51733 -1.16556,-0.61571 l -0.41993,-0.1789 -0.74916,0.32198 c -0.74915,0.322 -0.74915,0.322 -0.72303,0.61016 0.0283,0.31187 -0.1414,0.42095 -0.56215,0.36139 -0.84917,-0.1202 -0.55923,-4.01788 0.29889,-4.01788 0.21198,0 0.28014,0.42173 0.16121,0.99747 -0.17779,0.86078 -0.17073,1.58316 0.0155,1.58083 0.6389,-0.008 2.25867,-1.26698 2.67169,-2.07656 0.18443,-0.36152 0.35195,-0.45906 0.57938,-0.33735 0.33432,0.17892 0.10408,0.86115 -0.53751,1.59309 -0.20593,0.23491 -0.36104,0.43947 -0.34467,0.45457 0.0164,0.0151 0.33798,0.19726 0.71469,0.40481 0.79294,0.43685 1.16399,0.70524 1.33423,0.96505 0.20729,0.31636 0.007,0.57248 -0.34633,0.44138 z m -33.942196,-0.21367 c -0.35198,-1.25861 0.0774,-4.00746 0.53906,-3.45118 0.15844,0.19092 0.16179,3.49349 0.004,3.59376 -0.24124,0.15293 -0.47741,0.0908 -0.5427,-0.14258 z m 14.890286,0.11711 c -2.78339,-0.79008 -1.14969,-4.09939 1.81637,-3.67934 2.82223,0.39968 2.14726,3.61534 -0.78764,3.75252 -0.39413,0.0184 -0.81032,-0.0115 -1.02873,-0.0731 z m 1.70514,-0.7886 c 0.64883,-0.16538 1.15744,-0.69274 1.15744,-1.2001 0,-1.09677 -2.16121,-1.34961 -3.14311,-0.36772 -1.06651,1.06651 0.15833,2.03359 1.98567,1.56782 z m 8.09924,0.76482 c -2.43851,-0.78032 -1.36429,-3.66335 1.37125,-3.68022 3.28883,-0.0202 2.97373,3.61502 -0.32732,3.77634 -0.44357,0.0216 -0.76961,-0.008 -1.04393,-0.0961 z m 1.84964,-0.7826 c 0.53577,-0.15609 1.08902,-0.75477 1.08902,-1.17845 0,-1.46279 -3.28211,-1.20842 -3.52252,0.27301 -0.13472,0.83025 1.10645,1.29206 2.4335,0.90544 z"
       id="path30976"
       sodipodi:nodetypes="ccssscssscccccsssscscscccsscccsssssscccssscsccssscssccssscssssssssscsssscscccssssssssssccssssss" />
    <g
       id="g2750"
       transform="translate(68.254696,96.089533)">
      <path
         sodipodi:type="spiral"
         style="fill:none;fill-rule:evenodd;stroke:#578d5b;stroke-width:0.571565;stroke-linecap:round;stroke-dasharray:1.14313, 1.14313;stroke-dashoffset:0;stroke-opacity:1"
         id="path2746"
         sodipodi:cx="69.841919"
         sodipodi:cy="46.968689"
         sodipodi:expansion="1"
         sodipodi:revolution="2.3099999"
         sodipodi:radius="11.022251"
         sodipodi:argument="-42.349308"
         sodipodi:t0="0"
         d="m 69.841919,46.968689 c -0.04461,0.716324 -0.987599,0.293279 -1.190578,-0.07414 -0.550062,-0.995685 0.398143,-2.070839 1.33886,-2.307015 1.682721,-0.422465 3.187553,1.009431 3.423452,2.603579 0.346191,2.339477 -1.624409,4.324631 -3.868298,4.539889 -2.990752,0.286906 -5.46962,-2.240093 -5.656326,-5.133017 -0.234952,-3.640449 2.855968,-6.618546 6.397736,-6.772764 4.289556,-0.186777 7.769724,3.471921 7.889201,7.662456 0.140799,4.938401 -4.087916,8.92231 -8.927175,9.005638 -5.587117,0.0962 -10.075837,-4.70394 -10.122075,-10.191894 -0.01155,-1.371227 0.242697,-2.741379 0.738973,-4.019399"
         transform="matrix(1.7495818,0,0,1.7495818,-80.088693,-51.999426)" />
      <circle
         style="opacity:1;fill:none;stroke:#578d5b;stroke-width:1.12014;stroke-linecap:round;stroke-linejoin:round;stroke-dasharray:none;stroke-dashoffset:0;stroke-opacity:1;paint-order:markers fill stroke"
         id="circle2748"
         cx="26.09404"
         cy="19.156723"
         r="1.4994645" />
    </g>
  </g>
</svg>
