<?xml version="1.0" encoding="UTF-8" standalone="no"?>
<!-- Generated by graphviz version 12.2.1 (20241206.2353)
 -->

<!-- Title: mozok Pages: 1 -->

<svg
   width="234pt"
   height="862.00006pt"
   viewBox="0 0 233.75 862.00006"
   version="1.1"
   id="svg75"
   sodipodi:docname="simulation.gv.svg"
   xmlns:inkscape="http://www.inkscape.org/namespaces/inkscape"
   xmlns:sodipodi="http://sodipodi.sourceforge.net/DTD/sodipodi-0.dtd"
   xmlns="http://www.w3.org/2000/svg"
   xmlns:svg="http://www.w3.org/2000/svg">
  <defs
     id="defs75" />
  <sodipodi:namedview
     id="namedview75"
     pagecolor="#ffffff"
     bordercolor="#666666"
     borderopacity="1.0"
     inkscape:showpageshadow="2"
     inkscape:pageopacity="0.0"
     inkscape:pagecheckerboard="0"
     inkscape:deskcolor="#d1d1d1"
     inkscape:document-units="pt" />
  <g
     id="graph0"
     class="graph"
     transform="translate(4,858)">
    <title
       id="title1">mozok</title>
    <polygon
       fill="#ffffff"
       stroke="none"
       points="229.75,-858 229.75,4 -4,4 -4,-858 "
       id="polygon1" />
    <!-- P000001C6C95E9D90 -->
    <g
       id="node1"
       class="node">
      <title
         id="title2">P000001C6C95E9D90</title>
      <polygon
         fill="#66cdaa"
         stroke="none"
         points="124.12,-849 124.12,-826.5 62.25,-826.5 62.25,-849 "
         id="polygon2" />
      <polygon
         fill="none"
         stroke="#66cdaa"
         points="124.12,-849 124.12,-826.5 62.25,-826.5 62.25,-849 "
         id="polygon3" />
      <text
         text-anchor="start"
         x="71.059998"
         y="-833.70001"
         font-family="'Times New Roman', serif"
         font-weight="bold"
         font-size="14px"
         id="text3">START</text>
      <polygon
         fill="#ffffff"
         stroke="none"
         points="163.5,-849 163.5,-826.5 124.12,-826.5 124.12,-849 "
         id="polygon4" />
      <polygon
         fill="none"
         stroke="#ffffff"
         points="163.5,-849 163.5,-826.5 124.12,-826.5 124.12,-849 "
         id="polygon5" />
      <text
         text-anchor="start"
         x="132.94"
         y="-833.70001"
         font-family="'Times New Roman', serif"
         font-size="14px"
         id="text5">0</text>
      <text
         text-anchor="start"
         x="139.69"
         y="-833.70001"
         font-family="'Times New Roman', serif"
         font-style="italic"
         font-size="14px"
         id="text6">ms</text>
      <polygon
         fill="none"
         stroke="#d3d3d3"
         points="163.5,-826.5 163.5,-804 62.25,-804 62.25,-826.5 "
         id="polygon6" />
      <text
         text-anchor="start"
         x="65.25"
         y="-810.20001"
         font-family="'Times New Roman', serif"
         font-size="14px"
         id="text7">File: .\tutorial.qsf</text>
      <polygon
         fill="none"
         stroke="#d3d3d3"
         points="163.5,-804 163.5,-781.5 62.25,-781.5 62.25,-804 "
         id="polygon7" />
      <text
         text-anchor="start"
         x="82.5"
         y="-787.70001"
         font-family="'Times New Roman', serif"
         font-size="14px"
         id="text8">Init: TRUE</text>
      <polygon
         fill="none"
         stroke="#000000"
         points="164.5,-850 164.5,-780.5 61.25,-780.5 61.25,-850 "
         id="polygon8" />
    </g>
    <!-- P000001C6C95F3530 -->
    <g
       id="node2"
       class="node">
      <title
         id="title8">P000001C6C95F3530</title>
      <polygon
         fill="#add8e6"
         stroke="none"
         points="127.12,-735.5 127.12,-713 67.12,-713 67.12,-735.5 "
         id="polygon9" />
      <polygon
         fill="none"
         stroke="#add8e6"
         points="127.12,-735.5 127.12,-713 67.12,-713 67.12,-735.5 "
         id="polygon10" />
      <text
         text-anchor="start"
         x="72"
         y="-720.20001"
         font-family="'Times New Roman', serif"
         font-weight="bold"
         font-size="14px"
         id="text10">BLOCK</text>
      <polygon
         fill="#ffffff"
         stroke="none"
         points="158.62,-735.5 158.62,-713 127.12,-713 127.12,-735.5 "
         id="polygon11" />
      <polygon
         fill="none"
         stroke="#ffffff"
         points="158.62,-735.5 158.62,-713 127.12,-713 127.12,-735.5 "
         id="polygon12" />
      <text
         text-anchor="start"
         x="132"
         y="-720.20001"
         font-family="'Times New Roman', serif"
         font-size="14px"
         id="text12">0</text>
      <text
         text-anchor="start"
         x="138.75"
         y="-720.20001"
         font-family="'Times New Roman', serif"
         font-style="italic"
         font-size="14px"
         id="text13">ms</text>
      <polygon
         fill="none"
         stroke="#d3d3d3"
         points="158.62,-713 158.62,-690.5 67.12,-690.5 67.12,-713 "
         id="polygon13" />
      <text
         text-anchor="start"
         x="70.120003"
         y="-697.70001"
         font-family="'Times New Roman', serif"
         font-weight="bold"
         font-size="14px"
         id="text14">ACT</text>
      <text
         text-anchor="start"
         x="102.38"
         y="-697.70001"
         font-family="'Times New Roman', serif"
         font-size="14px"
         id="text15">ON_INIT</text>
      <polygon
         fill="none"
         stroke="#000000"
         points="159.62,-736.5 159.62,-689.5 66.12,-689.5 66.12,-736.5 "
         id="polygon15" />
    </g>
    <!-- P000001C6C95E9D90&#45;&gt;P000001C6C95F3530 -->
    <g
       id="edge1"
       class="edge">
      <title
         id="title15">P000001C6C95E9D90-&gt;P000001C6C95F3530</title>
      <path
         fill="none"
         stroke="#000000"
         d="M 112.88,-776.64 C 112.88,-768.5 112.88,-759.89 112.88,-751.75"
         id="path15" />
      <polygon
         fill="#000000"
         stroke="#000000"
         points="109.38,-751.77 116.38,-751.77 112.88,-741.77 "
         id="polygon16" />
    </g>
    <!-- P000001C6C95BD4D0 -->
    <g
       id="node3"
       class="node">
      <title
         id="title16">P000001C6C95BD4D0</title>
      <polygon
         fill="#f0e68c"
         stroke="none"
         points="122.25,-644.5 122.25,-622 9,-622 9,-644.5 "
         id="polygon17" />
      <polygon
         fill="none"
         stroke="#f0e68c"
         points="122.25,-644.5 122.25,-622 9,-622 9,-644.5 "
         id="polygon18" />
      <text
         text-anchor="start"
         x="45.380001"
         y="-629.20001"
         font-family="'Times New Roman', serif"
         font-weight="bold"
         font-size="14px"
         id="text18">META</text>
      <polygon
         fill="#ffffff"
         stroke="none"
         points="216.75,-644.5 216.75,-622 122.25,-622 122.25,-644.5 "
         id="polygon19" />
      <polygon
         fill="none"
         stroke="#ffffff"
         points="216.75,-644.5 216.75,-622 122.25,-622 122.25,-644.5 "
         id="polygon20" />
      <text
         text-anchor="start"
         x="158.62"
         y="-629.20001"
         font-family="'Times New Roman', serif"
         font-size="14px"
         id="text20">0</text>
      <text
         text-anchor="start"
         x="165.38"
         y="-629.20001"
         font-family="'Times New Roman', serif"
         font-style="italic"
         font-size="14px"
         id="text21">ms</text>
      <polygon
         fill="none"
         stroke="#d3d3d3"
         points="216.75,-622 216.75,-599.5 9,-599.5 9,-622 "
         id="polygon21" />
      <text
         text-anchor="start"
         x="93.379997"
         y="-605.70001"
         font-family="'Times New Roman', serif"
         font-size="14px"
         id="text22">PRINT</text>
      <polygon
         fill="none"
         stroke="#d3d3d3"
         points="216.75,-599.5 216.75,-577 9,-577 9,-599.5 "
         id="polygon22" />
      <text
         text-anchor="start"
         x="12"
         y="-583.20001"
         font-family="'Times New Roman', serif"
         font-size="14px"
         id="text23">------------- Hello, world! -------------</text>
      <polygon
         fill="none"
         stroke="#000000"
         points="217.75,-645.5 217.75,-576 8,-576 8,-645.5 "
         id="polygon23" />
    </g>
    <!-- P000001C6C95F3530&#45;&gt;P000001C6C95BD4D0 -->
    <g
       id="edge2"
       class="edge">
      <title
         id="title23">P000001C6C95F3530-&gt;P000001C6C95BD4D0</title>
      <path
         fill="none"
         stroke="#000000"
         d="M 112.88,-685.66 C 112.88,-677.92 112.88,-669.18 112.88,-660.51"
         id="path23" />
      <polygon
         fill="#000000"
         stroke="#000000"
         points="109.38,-660.74 116.38,-660.74 112.88,-650.74 "
         id="polygon24" />
    </g>
    <!-- P000001C6C95D0ED0 -->
    <g
       id="node4"
       class="node">
      <title
         id="title24">P000001C6C95D0ED0</title>
      <polygon
         fill="#add8e6"
         stroke="none"
         points="127.12,-531 127.12,-508.5 27,-508.5 27,-531 "
         id="polygon25" />
      <polygon
         fill="none"
         stroke="#add8e6"
         points="127.12,-531 127.12,-508.5 27,-508.5 27,-531 "
         id="polygon26" />
      <text
         text-anchor="start"
         x="51.939999"
         y="-515.70001"
         font-family="'Times New Roman', serif"
         font-weight="bold"
         font-size="14px"
         id="text26">BLOCK</text>
      <polygon
         fill="#ffffff"
         stroke="none"
         points="198.75,-531 198.75,-508.5 127.12,-508.5 127.12,-531 "
         id="polygon27" />
      <polygon
         fill="none"
         stroke="#ffffff"
         points="198.75,-531 198.75,-508.5 127.12,-508.5 127.12,-531 "
         id="polygon28" />
      <text
         text-anchor="start"
         x="152.06"
         y="-515.70001"
         font-family="'Times New Roman', serif"
         font-size="14px"
         id="text28">0</text>
      <text
         text-anchor="start"
         x="158.81"
         y="-515.70001"
         font-family="'Times New Roman', serif"
         font-style="italic"
         font-size="14px"
         id="text29">ms</text>
      <polygon
         fill="none"
         stroke="#d3d3d3"
         points="198.75,-508.5 198.75,-486 27,-486 27,-508.5 "
         id="polygon29" />
      <text
         text-anchor="start"
         x="30"
         y="-493.20001"
         font-family="'Times New Roman', serif"
         font-weight="bold"
         font-size="14px"
         id="text30">ACT</text>
      <text
         text-anchor="start"
         x="62.25"
         y="-493.20001"
         font-family="'Times New Roman', serif"
         font-size="14px"
         id="text31">TUTORIAL_STARTED</text>
      <polygon
         fill="none"
         stroke="#000000"
         points="199.75,-532 199.75,-485 26,-485 26,-532 "
         id="polygon31" />
    </g>
    <!-- P000001C6C95BD4D0&#45;&gt;P000001C6C95D0ED0 -->
    <g
       id="edge3"
       class="edge">
      <title
         id="title31">P000001C6C95BD4D0-&gt;P000001C6C95D0ED0</title>
      <path
         fill="none"
         stroke="#000000"
         d="M 112.88,-572.14 C 112.88,-564 112.88,-555.39 112.88,-547.25"
         id="path31" />
      <polygon
         fill="#000000"
         stroke="#000000"
         points="109.38,-547.27 116.38,-547.27 112.88,-537.27 "
         id="polygon32" />
    </g>
    <!-- P000001C6C9605DA0 -->
    <g
       id="node5"
       class="node">
      <title
         id="title32">P000001C6C9605DA0</title>
      <polygon
         fill="#f0e68c"
         stroke="none"
         points="122.25,-440 122.25,-417.5 31.12,-417.5 31.12,-440 "
         id="polygon33" />
      <polygon
         fill="none"
         stroke="#f0e68c"
         points="122.25,-440 122.25,-417.5 31.12,-417.5 31.12,-440 "
         id="polygon34" />
      <text
         text-anchor="start"
         x="56.439999"
         y="-424.70001"
         font-family="'Times New Roman', serif"
         font-weight="bold"
         font-size="14px"
         id="text34">META</text>
      <polygon
         fill="#ffffff"
         stroke="none"
         points="194.62,-440 194.62,-417.5 122.25,-417.5 122.25,-440 "
         id="polygon35" />
      <polygon
         fill="none"
         stroke="#ffffff"
         points="194.62,-440 194.62,-417.5 122.25,-417.5 122.25,-440 "
         id="polygon36" />
      <text
         text-anchor="start"
         x="147.56"
         y="-424.70001"
         font-family="'Times New Roman', serif"
         font-size="14px"
         id="text36">5</text>
      <text
         text-anchor="start"
         x="154.31"
         y="-424.70001"
         font-family="'Times New Roman', serif"
         font-style="italic"
         font-size="14px"
         id="text37">ms</text>
      <polygon
         fill="none"
         stroke="#d3d3d3"
         points="194.62,-417.5 194.62,-395 31.12,-395 31.12,-417.5 "
         id="polygon37" />
      <text
         text-anchor="start"
         x="93.379997"
         y="-401.20001"
         font-family="'Times New Roman', serif"
         font-size="14px"
         id="text38">PRINT</text>
      <polygon
         fill="none"
         stroke="#d3d3d3"
         points="194.62,-395 194.62,-372.5 31.12,-372.5 31.12,-395 "
         id="polygon38" />
      <text
         text-anchor="start"
         x="34.119999"
         y="-378.70001"
         font-family="'Times New Roman', serif"
         font-size="14px"
         id="text39">Tutorial quest started, enjoy!</text>
      <polygon
         fill="none"
         stroke="#000000"
         points="195.62,-441 195.62,-371.5 30.12,-371.5 30.12,-441 "
         id="polygon39" />
    </g>
    <!-- P000001C6C95D0ED0&#45;&gt;P000001C6C9605DA0 -->
    <g
       id="edge4"
       class="edge">
      <title
         id="title39">P000001C6C95D0ED0-&gt;P000001C6C9605DA0</title>
      <path
         fill="none"
         stroke="#000000"
         d="M 112.88,-481.16 C 112.88,-473.42 112.88,-464.68 112.88,-456.01"
         id="path39" />
      <polygon
         fill="#000000"
         stroke="#000000"
         points="109.38,-456.24 116.38,-456.24 112.88,-446.24 "
         id="polygon40" />
    </g>
    <!-- P000001C6C95CACC0 -->
    <g
       id="node6"
       class="node">
      <title
         id="title40">P000001C6C95CACC0</title>
      <polygon
         fill="#add8e6"
         stroke="none"
         points="127.12,-326.5 127.12,-304 39.75,-304 39.75,-326.5 "
         id="polygon41" />
      <polygon
         fill="none"
         stroke="#add8e6"
         points="127.12,-326.5 127.12,-304 39.75,-304 39.75,-326.5 "
         id="polygon42" />
      <text
         text-anchor="start"
         x="58.310001"
         y="-311.20001"
         font-family="'Times New Roman', serif"
         font-weight="bold"
         font-size="14px"
         id="text42">BLOCK</text>
      <polygon
         fill="#ffffff"
         stroke="none"
         points="186,-326.5 186,-304 127.12,-304 127.12,-326.5 "
         id="polygon43" />
      <polygon
         fill="none"
         stroke="#ffffff"
         points="186,-326.5 186,-304 127.12,-304 127.12,-326.5 "
         id="polygon44" />
      <text
         text-anchor="start"
         x="145.69"
         y="-311.20001"
         font-family="'Times New Roman', serif"
         font-size="14px"
         id="text44">0</text>
      <text
         text-anchor="start"
         x="152.44"
         y="-311.20001"
         font-family="'Times New Roman', serif"
         font-style="italic"
         font-size="14px"
         id="text45">ms</text>
      <polygon
         fill="none"
         stroke="#d3d3d3"
         points="186,-304 186,-281.5 39.75,-281.5 39.75,-304 "
         id="polygon45" />
      <text
         text-anchor="start"
         x="42.75"
         y="-288.70001"
         font-family="'Times New Roman', serif"
         font-weight="bold"
         font-size="14px"
         id="text46">ACT</text>
      <text
         text-anchor="start"
         x="75"
         y="-288.70001"
         font-family="'Times New Roman', serif"
         font-size="14px"
         id="text47">ON_TST_ACTION</text>
      <polygon
         fill="none"
         stroke="#000000"
         points="187,-327.5 187,-280.5 38.75,-280.5 38.75,-327.5 "
         id="polygon47" />
    </g>
    <!-- P000001C6C9605DA0&#45;&gt;P000001C6C95CACC0 -->
    <g
       id="edge5"
       class="edge">
      <title
         id="title47">P000001C6C9605DA0-&gt;P000001C6C95CACC0</title>
      <path
         fill="none"
         stroke="#000000"
         d="M 112.88,-367.64 C 112.88,-359.5 112.88,-350.89 112.88,-342.75"
         id="path47" />
      <polygon
         fill="#000000"
         stroke="#000000"
         points="109.38,-342.77 116.38,-342.77 112.88,-332.77 "
         id="polygon48" />
    </g>
    <!-- P000001C6C95CABC0 -->
    <g
       id="node7"
       class="node">
      <title
         id="title48">P000001C6C95CABC0</title>
      <polygon
         fill="#f0e68c"
         stroke="none"
         points="115.5,-235.5 115.5,-213 44.62,-213 44.62,-235.5 "
         id="polygon49" />
      <polygon
         fill="none"
         stroke="#f0e68c"
         points="115.5,-235.5 115.5,-213 44.62,-213 44.62,-235.5 "
         id="polygon50" />
      <text
         text-anchor="start"
         x="59.810001"
         y="-220.2"
         font-family="'Times New Roman', serif"
         font-weight="bold"
         font-size="14px"
         id="text50">META</text>
      <polygon
         fill="#ffffff"
         stroke="none"
         points="181.12,-235.5 181.12,-213 115.5,-213 115.5,-235.5 "
         id="polygon51" />
      <polygon
         fill="none"
         stroke="#ffffff"
         points="181.12,-235.5 181.12,-213 115.5,-213 115.5,-235.5 "
         id="polygon52" />
      <text
         text-anchor="start"
         x="130.69"
         y="-220.2"
         font-family="'Times New Roman', serif"
         font-size="14px"
         id="text52">331</text>
      <text
         text-anchor="start"
         x="150.94"
         y="-220.2"
         font-family="'Times New Roman', serif"
         font-style="italic"
         font-size="14px"
         id="text53">ms</text>
      <polygon
         fill="none"
         stroke="#d3d3d3"
         points="181.12,-213 181.12,-190.5 44.62,-190.5 44.62,-213 "
         id="polygon53" />
      <text
         text-anchor="start"
         x="93.379997"
         y="-196.7"
         font-family="'Times New Roman', serif"
         font-size="14px"
         id="text54">PRINT</text>
      <polygon
         fill="none"
         stroke="#d3d3d3"
         points="181.12,-190.5 181.12,-168 44.62,-168 44.62,-190.5 "
         id="polygon54" />
      <text
         text-anchor="start"
         x="47.619999"
         y="-174.2"
         font-family="'Times New Roman', serif"
         font-size="14px"
         id="text55">The key was picked up!</text>
      <polygon
         fill="none"
         stroke="#000000"
         points="182.12,-236.5 182.12,-167 43.62,-167 43.62,-236.5 "
         id="polygon55" />
    </g>
    <!-- P000001C6C95CACC0&#45;&gt;P000001C6C95CABC0 -->
    <g
       id="edge6"
       class="edge">
      <title
         id="title55">P000001C6C95CACC0-&gt;P000001C6C95CABC0</title>
      <path
         fill="none"
         stroke="#000000"
         d="M 112.88,-276.66 C 112.88,-268.92 112.88,-260.18 112.88,-251.51"
         id="path55" />
      <polygon
         fill="#000000"
         stroke="#000000"
         points="109.38,-251.74 116.38,-251.74 112.88,-241.74 "
         id="polygon56" />
    </g>
    <!-- P000001C6C95CAC40 -->
    <g
       id="node8"
       class="node">
      <title
         id="title56">P000001C6C95CAC40</title>
      <polygon
         fill="#66cdaa"
         stroke="none"
         points="59.25,-110.75 59.25,-88.25 24.75,-88.25 24.75,-110.75 "
         id="polygon57" />
      <polygon
         fill="none"
         stroke="#66cdaa"
         points="59.25,-110.75 59.25,-88.25 24.75,-88.25 24.75,-110.75 "
         id="polygon58" />
      <text
         text-anchor="start"
         x="27.75"
         y="-95.449997"
         font-family="'Times New Roman', serif"
         font-weight="bold"
         font-size="14px"
         id="text58">END</text>
      <polygon
         fill="#ffffff"
         stroke="none"
         points="87,-110.75 87,-88.25 59.25,-88.25 59.25,-110.75 "
         id="polygon59" />
      <polygon
         fill="none"
         stroke="#ffffff"
         points="87,-110.75 87,-88.25 59.25,-88.25 59.25,-110.75 "
         id="polygon60" />
      <text
         text-anchor="start"
         x="62.25"
         y="-95.449997"
         font-family="'Times New Roman', serif"
         font-size="14px"
         id="text60">0</text>
      <text
         text-anchor="start"
         x="69"
         y="-95.449997"
         font-family="'Times New Roman', serif"
         font-style="italic"
         font-size="14px"
         id="text61">ms</text>
      <polygon
         fill="none"
         stroke="#000000"
         points="88,-111.75 88,-87.25 23.75,-87.25 23.75,-111.75 "
         id="polygon61" />
    </g>
    <!-- P000001C6C95CABC0&#45;&gt;P000001C6C95CAC40 -->
    <g
       id="edge7"
       class="edge">
      <title
         id="title61">P000001C6C95CABC0-&gt;P000001C6C95CAC40</title>
      <path
         fill="none"
         stroke="#000000"
         d="M 91.49,-163.14 C 84.69,-151.18 77.31,-138.21 71.05,-127.18"
         id="path61" />
      <polygon
         fill="#000000"
         stroke="#000000"
         points="68.08,-129.05 74.17,-125.59 66.18,-118.63 "
         id="polygon62" />
    </g>
    <!-- P000001C6C95CAF40 -->
    <g
       id="node9"
       class="node">
      <title
         id="title62">P000001C6C95CAF40</title>
      <polygon
         fill="#ffff00"
         stroke="none"
         points="168.38,-122 168.38,-99.5 123.38,-99.5 123.38,-122 "
         id="polygon63" />
      <polygon
         fill="none"
         stroke="#ffff00"
         points="168.38,-122 168.38,-99.5 123.38,-99.5 123.38,-122 "
         id="polygon64" />
      <text
         text-anchor="start"
         x="126.38"
         y="-106.7"
         font-family="'Times New Roman', serif"
         font-weight="bold"
         font-size="14px"
         id="text64">SPLIT</text>
      <polygon
         fill="#ffbbbb"
         stroke="none"
         points="216.38,-122 216.38,-99.5 168.38,-99.5 168.38,-122 "
         id="polygon65" />
      <polygon
         fill="none"
         stroke="#ffbbbb"
         points="216.38,-122 216.38,-99.5 168.38,-99.5 168.38,-122 "
         id="polygon66" />
      <text
         text-anchor="start"
         x="171.38"
         y="-106.7"
         font-family="'Times New Roman', serif"
         font-size="14px"
         id="text66">1568</text>
      <text
         text-anchor="start"
         x="198.38"
         y="-106.7"
         font-family="'Times New Roman', serif"
         font-style="italic"
         font-size="14px"
         id="text67">ms</text>
      <polygon
         fill="none"
         stroke="#d3d3d3"
         points="216.38,-99.5 216.38,-77 123.38,-77 123.38,-99.5 "
         id="polygon67" />
      <text
         text-anchor="start"
         x="128.25"
         y="-83.199997"
         font-family="'Times New Roman', serif"
         font-size="14px"
         id="text68">BLOCK_EXIT</text>
      <polygon
         fill="none"
         stroke="#000000"
         points="217.38,-123 217.38,-76 122.38,-76 122.38,-123 "
         id="polygon68" />
    </g>
    <!-- P000001C6C95CABC0&#45;&gt;P000001C6C95CAF40 -->
    <g
       id="edge8"
       class="edge">
      <title
         id="title68">P000001C6C95CABC0-&gt;P000001C6C95CAF40</title>
      <path
         fill="none"
         stroke="#000000"
         d="M 134.26,-163.14 C 139.21,-154.43 144.47,-145.19 149.38,-136.55"
         id="path68" />
      <polygon
         fill="#000000"
         stroke="#000000"
         points="146.21,-135.04 152.3,-138.5 154.2,-128.07 "
         id="polygon69" />
    </g>
    <!-- P000001C6C95CAFC0 -->
    <g
       id="node10"
       class="node">
      <title
         id="title69">P000001C6C95CAFC0</title>
      <polygon
         fill="#66cdaa"
         stroke="none"
         points="173.25,-29.25 173.25,-6.75 138.75,-6.75 138.75,-29.25 "
         id="polygon70" />
      <polygon
         fill="none"
         stroke="#66cdaa"
         points="173.25,-29.25 173.25,-6.75 138.75,-6.75 138.75,-29.25 "
         id="polygon71" />
      <text
         text-anchor="start"
         x="141.75"
         y="-13.95"
         font-family="'Times New Roman', serif"
         font-weight="bold"
         font-size="14px"
         id="text71">END</text>
      <polygon
         fill="#ffffff"
         stroke="none"
         points="201,-29.25 201,-6.75 173.25,-6.75 173.25,-29.25 "
         id="polygon72" />
      <polygon
         fill="none"
         stroke="#ffffff"
         points="201,-29.25 201,-6.75 173.25,-6.75 173.25,-29.25 "
         id="polygon73" />
      <text
         text-anchor="start"
         x="176.25"
         y="-13.95"
         font-family="'Times New Roman', serif"
         font-size="14px"
         id="text73">0</text>
      <text
         text-anchor="start"
         x="183"
         y="-13.95"
         font-family="'Times New Roman', serif"
         font-style="italic"
         font-size="14px"
         id="text74">ms</text>
      <polygon
         fill="none"
         stroke="#000000"
         points="202,-30.25 202,-5.75 137.75,-5.75 137.75,-30.25 "
         id="polygon74" />
    </g>
    <!-- P000001C6C95CAF40&#45;&gt;P000001C6C95CAFC0 -->
    <g
       id="edge9"
       class="edge">
      <title
         id="title74">P000001C6C95CAF40-&gt;P000001C6C95CAFC0</title>
      <path
         fill="none"
         stroke="#000000"
         d="M 169.88,-72.03 C 169.88,-64.11 169.88,-55.4 169.88,-47.36"
         id="path74" />
      <polygon
         fill="#000000"
         stroke="#000000"
         points="166.38,-47.39 173.38,-47.39 169.88,-37.39 "
         id="polygon75" />
    </g>
  </g>
</svg>
