<?xml version="1.0" encoding="UTF-8" standalone="no"?>
<!-- Generated by graphviz version 12.2.1 (20241206.2353)
 -->

<!-- Title: mozok Pages: 1 -->

<svg
   width="427pt"
   height="1316pt"
   viewBox="0 0 426.5 1316"
   version="1.1"
   id="svg141"
   sodipodi:docname="out.gv.svg"
   xmlns:inkscape="http://www.inkscape.org/namespaces/inkscape"
   xmlns:sodipodi="http://sodipodi.sourceforge.net/DTD/sodipodi-0.dtd"
   xmlns="http://www.w3.org/2000/svg"
   xmlns:svg="http://www.w3.org/2000/svg">
  <defs
     id="defs141" />
  <sodipodi:namedview
     id="namedview141"
     pagecolor="#ffffff"
     bordercolor="#666666"
     borderopacity="1.0"
     inkscape:showpageshadow="2"
     inkscape:pageopacity="0.0"
     inkscape:pagecheckerboard="0"
     inkscape:deskcolor="#d1d1d1"
     inkscape:document-units="pt" />
  <g
     id="graph0"
     class="graph"
     transform="translate(4,1312)">
    <title
       id="title1">mozok</title>
    <polygon
       fill="#ffffff"
       stroke="none"
       points="422.5,-1312 422.5,4 -4,4 -4,-1312 "
       id="polygon1" />
    <!-- P000002D3315B6350 -->
    <g
       id="node1"
       class="node">
      <title
         id="title2">P000002D3315B6350</title>
      <polygon
         fill="#66cdaa"
         stroke="none"
         points="187.38,-1303 187.38,-1280.5 125.88,-1280.5 125.88,-1303 "
         id="polygon2" />
      <polygon
         fill="none"
         stroke="#66cdaa"
         points="187.38,-1303 187.38,-1280.5 125.88,-1280.5 125.88,-1303 "
         id="polygon3" />
      <text
         text-anchor="start"
         x="134.5"
         y="-1287.7"
         font-family="'Times New Roman', serif"
         font-weight="bold"
         font-size="14px"
         id="text3">START</text>
      <polygon
         fill="#ffffff"
         stroke="none"
         points="226.38,-1303 226.38,-1280.5 187.38,-1280.5 187.38,-1303 "
         id="polygon4" />
      <polygon
         fill="none"
         stroke="#ffffff"
         points="226.38,-1303 226.38,-1280.5 187.38,-1280.5 187.38,-1303 "
         id="polygon5" />
      <text
         text-anchor="start"
         x="196"
         y="-1287.7"
         font-family="'Times New Roman', serif"
         font-size="14px"
         id="text5">0</text>
      <text
         text-anchor="start"
         x="202.75"
         y="-1287.7"
         font-family="'Times New Roman', serif"
         font-style="italic"
         font-size="14px"
         id="text6">ms</text>
      <polygon
         fill="none"
         stroke="#d3d3d3"
         points="226.38,-1280.5 226.38,-1258 125.88,-1258 125.88,-1280.5 "
         id="polygon6" />
      <text
         text-anchor="start"
         x="128.88"
         y="-1264.2"
         font-family="'Times New Roman', serif"
         font-size="14px"
         id="text7">File: main.qsf.txt</text>
      <polygon
         fill="none"
         stroke="#d3d3d3"
         points="226.38,-1258 226.38,-1235.5 125.88,-1235.5 125.88,-1258 "
         id="polygon7" />
      <text
         text-anchor="start"
         x="145.75"
         y="-1241.7"
         font-family="'Times New Roman', serif"
         font-size="14px"
         id="text8">Init: TRUE</text>
      <polygon
         fill="none"
         stroke="#000000"
         points="227.38,-1304 227.38,-1234.5 124.88,-1234.5 124.88,-1304 "
         id="polygon8" />
    </g>
    <!-- P000002D3315DA360 -->
    <g
       id="node2"
       class="node">
      <title
         id="title8">P000002D3315DA360</title>
      <polygon
         fill="#add8e6"
         stroke="none"
         points="190.38,-1189.5 190.38,-1167 130.38,-1167 130.38,-1189.5 "
         id="polygon9" />
      <polygon
         fill="none"
         stroke="#add8e6"
         points="190.38,-1189.5 190.38,-1167 130.38,-1167 130.38,-1189.5 "
         id="polygon10" />
      <text
         text-anchor="start"
         x="135.25"
         y="-1174.2"
         font-family="'Times New Roman', serif"
         font-weight="bold"
         font-size="14px"
         id="text10">BLOCK</text>
      <polygon
         fill="#ffffff"
         stroke="none"
         points="221.88,-1189.5 221.88,-1167 190.38,-1167 190.38,-1189.5 "
         id="polygon11" />
      <polygon
         fill="none"
         stroke="#ffffff"
         points="221.88,-1189.5 221.88,-1167 190.38,-1167 190.38,-1189.5 "
         id="polygon12" />
      <text
         text-anchor="start"
         x="195.25"
         y="-1174.2"
         font-family="'Times New Roman', serif"
         font-size="14px"
         id="text12">0</text>
      <text
         text-anchor="start"
         x="202"
         y="-1174.2"
         font-family="'Times New Roman', serif"
         font-style="italic"
         font-size="14px"
         id="text13">ms</text>
      <polygon
         fill="none"
         stroke="#d3d3d3"
         points="221.88,-1167 221.88,-1144.5 130.38,-1144.5 130.38,-1167 "
         id="polygon13" />
      <text
         text-anchor="start"
         x="133.38"
         y="-1151.7"
         font-family="'Times New Roman', serif"
         font-weight="bold"
         font-size="14px"
         id="text14">ACT</text>
      <text
         text-anchor="start"
         x="165.62"
         y="-1151.7"
         font-family="'Times New Roman', serif"
         font-size="14px"
         id="text15">ON_INIT</text>
      <polygon
         fill="none"
         stroke="#000000"
         points="222.88,-1190.5 222.88,-1143.5 129.38,-1143.5 129.38,-1190.5 "
         id="polygon15" />
    </g>
    <!-- P000002D3315B6350&#45;&gt;P000002D3315DA360 -->
    <g
       id="edge1"
       class="edge">
      <title
         id="title15">P000002D3315B6350-&gt;P000002D3315DA360</title>
      <path
         fill="none"
         stroke="#000000"
         d="M 176.12,-1230.64 C 176.12,-1222.5 176.12,-1213.89 176.12,-1205.75"
         id="path15" />
      <polygon
         fill="#000000"
         stroke="#000000"
         points="172.63,-1205.77 179.63,-1205.77 176.13,-1195.77 "
         id="polygon16" />
    </g>
    <!-- P000002D3315D9E60 -->
    <g
       id="node3"
       class="node">
      <title
         id="title16">P000002D3315D9E60</title>
      <polygon
         fill="#f0e68c"
         stroke="none"
         points="185.5,-1098.5 185.5,-1076 72.25,-1076 72.25,-1098.5 "
         id="polygon17" />
      <polygon
         fill="none"
         stroke="#f0e68c"
         points="185.5,-1098.5 185.5,-1076 72.25,-1076 72.25,-1098.5 "
         id="polygon18" />
      <text
         text-anchor="start"
         x="108.62"
         y="-1083.2"
         font-family="'Times New Roman', serif"
         font-weight="bold"
         font-size="14px"
         id="text18">META</text>
      <polygon
         fill="#ffffff"
         stroke="none"
         points="280,-1098.5 280,-1076 185.5,-1076 185.5,-1098.5 "
         id="polygon19" />
      <polygon
         fill="none"
         stroke="#ffffff"
         points="280,-1098.5 280,-1076 185.5,-1076 185.5,-1098.5 "
         id="polygon20" />
      <text
         text-anchor="start"
         x="221.88"
         y="-1083.2"
         font-family="'Times New Roman', serif"
         font-size="14px"
         id="text20">0</text>
      <text
         text-anchor="start"
         x="228.62"
         y="-1083.2"
         font-family="'Times New Roman', serif"
         font-style="italic"
         font-size="14px"
         id="text21">ms</text>
      <polygon
         fill="none"
         stroke="#d3d3d3"
         points="280,-1076 280,-1053.5 72.25,-1053.5 72.25,-1076 "
         id="polygon21" />
      <text
         text-anchor="start"
         x="156.62"
         y="-1059.7"
         font-family="'Times New Roman', serif"
         font-size="14px"
         id="text22">PRINT</text>
      <polygon
         fill="none"
         stroke="#d3d3d3"
         points="280,-1053.5 280,-1031 72.25,-1031 72.25,-1053.5 "
         id="polygon22" />
      <text
         text-anchor="start"
         x="75.25"
         y="-1037.2"
         font-family="'Times New Roman', serif"
         font-size="14px"
         id="text23">------------- Hello, world! -------------</text>
      <polygon
         fill="none"
         stroke="#000000"
         points="281,-1099.5 281,-1030 71.25,-1030 71.25,-1099.5 "
         id="polygon23" />
    </g>
    <!-- P000002D3315DA360&#45;&gt;P000002D3315D9E60 -->
    <g
       id="edge2"
       class="edge">
      <title
         id="title23">P000002D3315DA360-&gt;P000002D3315D9E60</title>
      <path
         fill="none"
         stroke="#000000"
         d="M 176.12,-1139.66 C 176.12,-1131.92 176.12,-1123.18 176.12,-1114.51"
         id="path23" />
      <polygon
         fill="#000000"
         stroke="#000000"
         points="172.63,-1114.74 179.63,-1114.74 176.13,-1104.74 "
         id="polygon24" />
    </g>
    <!-- P000002D3315D9960 -->
    <g
       id="node4"
       class="node">
      <title
         id="title24">P000002D3315D9960</title>
      <polygon
         fill="#add8e6"
         stroke="none"
         points="190.38,-985 190.38,-962.5 90.25,-962.5 90.25,-985 "
         id="polygon25" />
      <polygon
         fill="none"
         stroke="#add8e6"
         points="190.38,-985 190.38,-962.5 90.25,-962.5 90.25,-985 "
         id="polygon26" />
      <text
         text-anchor="start"
         x="115.19"
         y="-969.70001"
         font-family="'Times New Roman', serif"
         font-weight="bold"
         font-size="14px"
         id="text26">BLOCK</text>
      <polygon
         fill="#ffffff"
         stroke="none"
         points="262,-985 262,-962.5 190.38,-962.5 190.38,-985 "
         id="polygon27" />
      <polygon
         fill="none"
         stroke="#ffffff"
         points="262,-985 262,-962.5 190.38,-962.5 190.38,-985 "
         id="polygon28" />
      <text
         text-anchor="start"
         x="215.31"
         y="-969.70001"
         font-family="'Times New Roman', serif"
         font-size="14px"
         id="text28">0</text>
      <text
         text-anchor="start"
         x="222.06"
         y="-969.70001"
         font-family="'Times New Roman', serif"
         font-style="italic"
         font-size="14px"
         id="text29">ms</text>
      <polygon
         fill="none"
         stroke="#d3d3d3"
         points="262,-962.5 262,-940 90.25,-940 90.25,-962.5 "
         id="polygon29" />
      <text
         text-anchor="start"
         x="93.25"
         y="-947.20001"
         font-family="'Times New Roman', serif"
         font-weight="bold"
         font-size="14px"
         id="text30">ACT</text>
      <text
         text-anchor="start"
         x="125.5"
         y="-947.20001"
         font-family="'Times New Roman', serif"
         font-size="14px"
         id="text31">TUTORIAL_STARTED</text>
      <polygon
         fill="none"
         stroke="#000000"
         points="263,-986 263,-939 89.25,-939 89.25,-986 "
         id="polygon31" />
    </g>
    <!-- P000002D3315D9E60&#45;&gt;P000002D3315D9960 -->
    <g
       id="edge3"
       class="edge">
      <title
         id="title31">P000002D3315D9E60-&gt;P000002D3315D9960</title>
      <path
         fill="none"
         stroke="#000000"
         d="M 176.12,-1026.14 C 176.12,-1018 176.12,-1009.39 176.12,-1001.25"
         id="path31" />
      <polygon
         fill="#000000"
         stroke="#000000"
         points="172.63,-1001.27 179.63,-1001.27 176.13,-991.27 "
         id="polygon32" />
    </g>
    <!-- P000002D3315D99E0 -->
    <g
       id="node5"
       class="node">
      <title
         id="title32">P000002D3315D99E0</title>
      <polygon
         fill="#f0e68c"
         stroke="none"
         points="185.5,-894 185.5,-871.5 94.38,-871.5 94.38,-894 "
         id="polygon33" />
      <polygon
         fill="none"
         stroke="#f0e68c"
         points="185.5,-894 185.5,-871.5 94.38,-871.5 94.38,-894 "
         id="polygon34" />
      <text
         text-anchor="start"
         x="119.69"
         y="-878.70001"
         font-family="'Times New Roman', serif"
         font-weight="bold"
         font-size="14px"
         id="text34">META</text>
      <polygon
         fill="#ffffff"
         stroke="none"
         points="257.88,-894 257.88,-871.5 185.5,-871.5 185.5,-894 "
         id="polygon35" />
      <polygon
         fill="none"
         stroke="#ffffff"
         points="257.88,-894 257.88,-871.5 185.5,-871.5 185.5,-894 "
         id="polygon36" />
      <text
         text-anchor="start"
         x="210.81"
         y="-878.70001"
         font-family="'Times New Roman', serif"
         font-size="14px"
         id="text36">6</text>
      <text
         text-anchor="start"
         x="217.56"
         y="-878.70001"
         font-family="'Times New Roman', serif"
         font-style="italic"
         font-size="14px"
         id="text37">ms</text>
      <polygon
         fill="none"
         stroke="#d3d3d3"
         points="257.88,-871.5 257.88,-849 94.38,-849 94.38,-871.5 "
         id="polygon37" />
      <text
         text-anchor="start"
         x="156.62"
         y="-855.20001"
         font-family="'Times New Roman', serif"
         font-size="14px"
         id="text38">PRINT</text>
      <polygon
         fill="none"
         stroke="#d3d3d3"
         points="257.88,-849 257.88,-826.5 94.38,-826.5 94.38,-849 "
         id="polygon38" />
      <text
         text-anchor="start"
         x="97.379997"
         y="-832.70001"
         font-family="'Times New Roman', serif"
         font-size="14px"
         id="text39">Tutorial quest started, enjoy!</text>
      <polygon
         fill="none"
         stroke="#000000"
         points="258.88,-895 258.88,-825.5 93.38,-825.5 93.38,-895 "
         id="polygon39" />
    </g>
    <!-- P000002D3315D9960&#45;&gt;P000002D3315D99E0 -->
    <g
       id="edge4"
       class="edge">
      <title
         id="title39">P000002D3315D9960-&gt;P000002D3315D99E0</title>
      <path
         fill="none"
         stroke="#000000"
         d="M 176.12,-935.16 C 176.12,-927.42 176.12,-918.68 176.12,-910.01"
         id="path39" />
      <polygon
         fill="#000000"
         stroke="#000000"
         points="172.63,-910.24 179.63,-910.24 176.13,-900.24 "
         id="polygon40" />
    </g>
    <!-- P000002D3315D9CE0 -->
    <g
       id="node6"
       class="node">
      <title
         id="title40">P000002D3315D9CE0</title>
      <polygon
         fill="#add8e6"
         stroke="none"
         points="190.38,-780.5 190.38,-758 103,-758 103,-780.5 "
         id="polygon41" />
      <polygon
         fill="none"
         stroke="#add8e6"
         points="190.38,-780.5 190.38,-758 103,-758 103,-780.5 "
         id="polygon42" />
      <text
         text-anchor="start"
         x="121.56"
         y="-765.20001"
         font-family="'Times New Roman', serif"
         font-weight="bold"
         font-size="14px"
         id="text42">BLOCK</text>
      <polygon
         fill="#ffffff"
         stroke="none"
         points="249.25,-780.5 249.25,-758 190.38,-758 190.38,-780.5 "
         id="polygon43" />
      <polygon
         fill="none"
         stroke="#ffffff"
         points="249.25,-780.5 249.25,-758 190.38,-758 190.38,-780.5 "
         id="polygon44" />
      <text
         text-anchor="start"
         x="208.94"
         y="-765.20001"
         font-family="'Times New Roman', serif"
         font-size="14px"
         id="text44">0</text>
      <text
         text-anchor="start"
         x="215.69"
         y="-765.20001"
         font-family="'Times New Roman', serif"
         font-style="italic"
         font-size="14px"
         id="text45">ms</text>
      <polygon
         fill="none"
         stroke="#d3d3d3"
         points="249.25,-758 249.25,-735.5 103,-735.5 103,-758 "
         id="polygon45" />
      <text
         text-anchor="start"
         x="106"
         y="-742.70001"
         font-family="'Times New Roman', serif"
         font-weight="bold"
         font-size="14px"
         id="text46">ACT</text>
      <text
         text-anchor="start"
         x="138.25"
         y="-742.70001"
         font-family="'Times New Roman', serif"
         font-size="14px"
         id="text47">ON_TST_ACTION</text>
      <polygon
         fill="none"
         stroke="#000000"
         points="250.25,-781.5 250.25,-734.5 102,-734.5 102,-781.5 "
         id="polygon47" />
    </g>
    <!-- P000002D3315D99E0&#45;&gt;P000002D3315D9CE0 -->
    <g
       id="edge5"
       class="edge">
      <title
         id="title47">P000002D3315D99E0-&gt;P000002D3315D9CE0</title>
      <path
         fill="none"
         stroke="#000000"
         d="M 176.12,-821.64 C 176.12,-813.5 176.12,-804.89 176.12,-796.75"
         id="path47" />
      <polygon
         fill="#000000"
         stroke="#000000"
         points="172.63,-796.77 179.63,-796.77 176.13,-786.77 "
         id="polygon48" />
    </g>
    <!-- P000002D3315DA7E0 -->
    <g
       id="node7"
       class="node">
      <title
         id="title48">P000002D3315DA7E0</title>
      <polygon
         fill="#f0e68c"
         stroke="none"
         points="178.75,-689.5 178.75,-667 107.88,-667 107.88,-689.5 "
         id="polygon49" />
      <polygon
         fill="none"
         stroke="#f0e68c"
         points="178.75,-689.5 178.75,-667 107.88,-667 107.88,-689.5 "
         id="polygon50" />
      <text
         text-anchor="start"
         x="123.06"
         y="-674.20001"
         font-family="'Times New Roman', serif"
         font-weight="bold"
         font-size="14px"
         id="text50">META</text>
      <polygon
         fill="#ffffff"
         stroke="none"
         points="244.38,-689.5 244.38,-667 178.75,-667 178.75,-689.5 "
         id="polygon51" />
      <polygon
         fill="none"
         stroke="#ffffff"
         points="244.38,-689.5 244.38,-667 178.75,-667 178.75,-689.5 "
         id="polygon52" />
      <text
         text-anchor="start"
         x="193.94"
         y="-674.20001"
         font-family="'Times New Roman', serif"
         font-size="14px"
         id="text52">317</text>
      <text
         text-anchor="start"
         x="214.19"
         y="-674.20001"
         font-family="'Times New Roman', serif"
         font-style="italic"
         font-size="14px"
         id="text53">ms</text>
      <polygon
         fill="none"
         stroke="#d3d3d3"
         points="244.38,-667 244.38,-644.5 107.88,-644.5 107.88,-667 "
         id="polygon53" />
      <text
         text-anchor="start"
         x="156.62"
         y="-650.70001"
         font-family="'Times New Roman', serif"
         font-size="14px"
         id="text54">PRINT</text>
      <polygon
         fill="none"
         stroke="#d3d3d3"
         points="244.38,-644.5 244.38,-622 107.88,-622 107.88,-644.5 "
         id="polygon54" />
      <text
         text-anchor="start"
         x="110.88"
         y="-628.20001"
         font-family="'Times New Roman', serif"
         font-size="14px"
         id="text55">The key was picked up!</text>
      <polygon
         fill="none"
         stroke="#000000"
         points="245.38,-690.5 245.38,-621 106.88,-621 106.88,-690.5 "
         id="polygon55" />
    </g>
    <!-- P000002D3315D9CE0&#45;&gt;P000002D3315DA7E0 -->
    <g
       id="edge6"
       class="edge">
      <title
         id="title55">P000002D3315D9CE0-&gt;P000002D3315DA7E0</title>
      <path
         fill="none"
         stroke="#000000"
         d="M 176.12,-730.66 C 176.12,-722.92 176.12,-714.18 176.12,-705.51"
         id="path55" />
      <polygon
         fill="#000000"
         stroke="#000000"
         points="172.63,-705.74 179.63,-705.74 176.13,-695.74 "
         id="polygon56" />
    </g>
    <!-- P000002D3315DA860 -->
    <g
       id="node8"
       class="node">
      <title
         id="title56">P000002D3315DA860</title>
      <polygon
         fill="#66cdaa"
         stroke="none"
         points="67.5,-564.75 67.5,-542.25 33,-542.25 33,-564.75 "
         id="polygon57" />
      <polygon
         fill="none"
         stroke="#66cdaa"
         points="67.5,-564.75 67.5,-542.25 33,-542.25 33,-564.75 "
         id="polygon58" />
      <text
         text-anchor="start"
         x="36"
         y="-549.45001"
         font-family="'Times New Roman', serif"
         font-weight="bold"
         font-size="14px"
         id="text58">END</text>
      <polygon
         fill="#ffffff"
         stroke="none"
         points="95.25,-564.75 95.25,-542.25 67.5,-542.25 67.5,-564.75 "
         id="polygon59" />
      <polygon
         fill="none"
         stroke="#ffffff"
         points="95.25,-564.75 95.25,-542.25 67.5,-542.25 67.5,-564.75 "
         id="polygon60" />
      <text
         text-anchor="start"
         x="70.5"
         y="-549.45001"
         font-family="'Times New Roman', serif"
         font-size="14px"
         id="text60">0</text>
      <text
         text-anchor="start"
         x="77.25"
         y="-549.45001"
         font-family="'Times New Roman', serif"
         font-style="italic"
         font-size="14px"
         id="text61">ms</text>
      <polygon
         fill="none"
         stroke="#000000"
         points="96.25,-565.75 96.25,-541.25 32,-541.25 32,-565.75 "
         id="polygon61" />
    </g>
    <!-- P000002D3315DA7E0&#45;&gt;P000002D3315DA860 -->
    <g
       id="edge7"
       class="edge">
      <title
         id="title61">P000002D3315DA7E0-&gt;P000002D3315DA860</title>
      <path
         fill="none"
         stroke="#000000"
         d="M 134.1,-617.14 C 119.78,-604.32 104.15,-590.33 91.31,-578.83"
         id="path61" />
      <polygon
         fill="#000000"
         stroke="#000000"
         points="89.15,-581.6 93.82,-576.38 84.04,-572.32 "
         id="polygon62" />
    </g>
    <!-- P000002D3315DA3E0 -->
    <g
       id="node9"
       class="node">
      <title
         id="title62">P000002D3315DA3E0</title>
      <polygon
         fill="#ffff00"
         stroke="none"
         points="184.75,-576 184.75,-553.5 131.5,-553.5 131.5,-576 "
         id="polygon63" />
      <polygon
         fill="none"
         stroke="#ffff00"
         points="184.75,-576 184.75,-553.5 131.5,-553.5 131.5,-576 "
         id="polygon64" />
      <text
         text-anchor="start"
         x="138.62"
         y="-560.70001"
         font-family="'Times New Roman', serif"
         font-weight="bold"
         font-size="14px"
         id="text64">SPLIT</text>
      <polygon
         fill="#ffffff"
         stroke="none"
         points="220.75,-576 220.75,-553.5 184.75,-553.5 184.75,-576 "
         id="polygon65" />
      <polygon
         fill="none"
         stroke="#ffffff"
         points="220.75,-576 220.75,-553.5 184.75,-553.5 184.75,-576 "
         id="polygon66" />
      <text
         text-anchor="start"
         x="191.88"
         y="-560.70001"
         font-family="'Times New Roman', serif"
         font-size="14px"
         id="text66">0</text>
      <text
         text-anchor="start"
         x="198.62"
         y="-560.70001"
         font-family="'Times New Roman', serif"
         font-style="italic"
         font-size="14px"
         id="text67">ms</text>
      <polygon
         fill="none"
         stroke="#d3d3d3"
         points="220.75,-553.5 220.75,-531 131.5,-531 131.5,-553.5 "
         id="polygon67" />
      <text
         text-anchor="start"
         x="134.5"
         y="-537.20001"
         font-family="'Times New Roman', serif"
         font-size="14px"
         id="text68">BLOCK_EXIT</text>
      <polygon
         fill="none"
         stroke="#000000"
         points="221.75,-577 221.75,-530 130.5,-530 130.5,-577 "
         id="polygon68" />
    </g>
    <!-- P000002D3315DA7E0&#45;&gt;P000002D3315DA3E0 -->
    <g
       id="edge8"
       class="edge">
      <title
         id="title68">P000002D3315DA7E0-&gt;P000002D3315DA3E0</title>
      <path
         fill="none"
         stroke="#000000"
         d="M 176.12,-617.14 C 176.12,-609 176.12,-600.39 176.12,-592.25"
         id="path68" />
      <polygon
         fill="#000000"
         stroke="#000000"
         points="172.63,-592.27 179.63,-592.27 176.13,-582.27 "
         id="polygon69" />
    </g>
    <!-- P000002D331A3E750 -->
    <g
       id="node10"
       class="node">
      <title
         id="title69">P000002D331A3E750</title>
      <polygon
         fill="#ffff00"
         stroke="none"
         points="344.75,-576 344.75,-553.5 270.88,-553.5 270.88,-576 "
         id="polygon70" />
      <polygon
         fill="none"
         stroke="#ffff00"
         points="344.75,-576 344.75,-553.5 270.88,-553.5 270.88,-576 "
         id="polygon71" />
      <text
         text-anchor="start"
         x="288.31"
         y="-560.70001"
         font-family="'Times New Roman', serif"
         font-weight="bold"
         font-size="14px"
         id="text71">SPLIT</text>
      <polygon
         fill="#ffffff"
         stroke="none"
         points="401.38,-576 401.38,-553.5 344.75,-553.5 344.75,-576 "
         id="polygon72" />
      <polygon
         fill="none"
         stroke="#ffffff"
         points="401.38,-576 401.38,-553.5 344.75,-553.5 344.75,-576 "
         id="polygon73" />
      <text
         text-anchor="start"
         x="362.19"
         y="-560.70001"
         font-family="'Times New Roman', serif"
         font-size="14px"
         id="text73">0</text>
      <text
         text-anchor="start"
         x="368.94"
         y="-560.70001"
         font-family="'Times New Roman', serif"
         font-style="italic"
         font-size="14px"
         id="text74">ms</text>
      <polygon
         fill="none"
         stroke="#d3d3d3"
         points="401.38,-553.5 401.38,-531 270.88,-531 270.88,-553.5 "
         id="polygon74" />
      <text
         text-anchor="start"
         x="273.88"
         y="-537.20001"
         font-family="'Times New Roman', serif"
         font-size="14px"
         id="text75">BLOCK_ENTRANCE</text>
      <polygon
         fill="none"
         stroke="#000000"
         points="402.38,-577 402.38,-530 269.88,-530 269.88,-577 "
         id="polygon75" />
    </g>
    <!-- P000002D3315DA7E0&#45;&gt;P000002D331A3E750 -->
    <g
       id="edge9"
       class="edge">
      <title
         id="title75">P000002D3315DA7E0-&gt;P000002D331A3E750</title>
      <path
         fill="none"
         stroke="#000000"
         d="M 236.16,-617.14 C 252.17,-607.11 269.31,-596.36 284.81,-586.65"
         id="path75" />
      <polygon
         fill="#000000"
         stroke="#000000"
         points="282.6,-583.91 286.32,-589.84 292.93,-581.56 "
         id="polygon76" />
    </g>
    <!-- P000002D3315DA6E0 -->
    <g
       id="node11"
       class="node">
      <title
         id="title76">P000002D3315DA6E0</title>
      <polygon
         fill="#7fffd4"
         stroke="none"
         points="174.5,-485 174.5,-462.5 83.75,-462.5 83.75,-485 "
         id="polygon77" />
      <polygon
         fill="none"
         stroke="#7fffd4"
         points="174.5,-485 174.5,-462.5 83.75,-462.5 83.75,-485 "
         id="polygon78" />
      <text
         text-anchor="start"
         x="101.75"
         y="-469.70001"
         font-family="'Times New Roman', serif"
         font-weight="bold"
         font-size="14px"
         id="text78">EXPECT</text>
      <polygon
         fill="#ffbbbb"
         stroke="none"
         points="252.5,-485 252.5,-462.5 174.5,-462.5 174.5,-485 "
         id="polygon79" />
      <polygon
         fill="none"
         stroke="#ffbbbb"
         points="252.5,-485 252.5,-462.5 174.5,-462.5 174.5,-485 "
         id="polygon80" />
      <text
         text-anchor="start"
         x="192.5"
         y="-469.70001"
         font-family="'Times New Roman', serif"
         font-size="14px"
         id="text80">1613</text>
      <text
         text-anchor="start"
         x="219.5"
         y="-469.70001"
         font-family="'Times New Roman', serif"
         font-style="italic"
         font-size="14px"
         id="text81">ms</text>
      <polygon
         fill="none"
         stroke="#d3d3d3"
         points="252.5,-462.5 252.5,-440 83.75,-440 83.75,-462.5 "
         id="polygon81" />
      <text
         text-anchor="start"
         x="117.88"
         y="-446.20001"
         font-family="'Times New Roman', serif"
         font-size="14px"
         id="text82">UNREACHABLE</text>
      <polygon
         fill="none"
         stroke="#d3d3d3"
         points="252.5,-440 252.5,-417.5 83.75,-417.5 83.75,-440 "
         id="polygon82" />
      <text
         text-anchor="start"
         x="86.75"
         y="-423.70001"
         font-family="'Times New Roman', serif"
         font-size="14px"
         id="text83">[tut] PuzzleTutorial_GetHeart</text>
      <polygon
         fill="none"
         stroke="#000000"
         points="253.5,-486 253.5,-416.5 82.75,-416.5 82.75,-486 "
         id="polygon83" />
    </g>
    <!-- P000002D3315DA3E0&#45;&gt;P000002D3315DA6E0 -->
    <g
       id="edge10"
       class="edge">
      <title
         id="title83">P000002D3315DA3E0-&gt;P000002D3315DA6E0</title>
      <path
         fill="none"
         stroke="#000000"
         d="M 174.02,-526.16 C 173.41,-518.42 172.71,-509.68 172.02,-501.01"
         id="path83" />
      <polygon
         fill="#000000"
         stroke="#000000"
         points="168.54,-501.48 175.52,-500.92 171.24,-491.23 "
         id="polygon84" />
    </g>
    <!-- P000002D331A3E8D0 -->
    <g
       id="node12"
       class="node">
      <title
         id="title84">P000002D331A3E8D0</title>
      <polygon
         fill="#7fffd4"
         stroke="none"
         points="359.62,-485 359.62,-462.5 288.75,-462.5 288.75,-485 "
         id="polygon85" />
      <polygon
         fill="none"
         stroke="#7fffd4"
         points="359.62,-485 359.62,-462.5 288.75,-462.5 288.75,-485 "
         id="polygon86" />
      <text
         text-anchor="start"
         x="296.81"
         y="-469.70001"
         font-family="'Times New Roman', serif"
         font-weight="bold"
         font-size="14px"
         id="text86">EXPECT</text>
      <polygon
         fill="#ffffff"
         stroke="none"
         points="397.5,-485 397.5,-462.5 359.62,-462.5 359.62,-485 "
         id="polygon87" />
      <polygon
         fill="none"
         stroke="#ffffff"
         points="397.5,-485 397.5,-462.5 359.62,-462.5 359.62,-485 "
         id="polygon88" />
      <text
         text-anchor="start"
         x="367.69"
         y="-469.70001"
         font-family="'Times New Roman', serif"
         font-size="14px"
         id="text88">0</text>
      <text
         text-anchor="start"
         x="374.44"
         y="-469.70001"
         font-family="'Times New Roman', serif"
         font-style="italic"
         font-size="14px"
         id="text89">ms</text>
      <polygon
         fill="none"
         stroke="#d3d3d3"
         points="397.5,-462.5 397.5,-440 288.75,-440 288.75,-462.5 "
         id="polygon89" />
      <text
         text-anchor="start"
         x="292.88"
         y="-446.20001"
         font-family="'Times New Roman', serif"
         font-size="14px"
         id="text90">UNREACHABLE</text>
      <polygon
         fill="none"
         stroke="#d3d3d3"
         points="397.5,-440 397.5,-417.5 288.75,-417.5 288.75,-440 "
         id="polygon90" />
      <text
         text-anchor="start"
         x="291.75"
         y="-423.70001"
         font-family="'Times New Roman', serif"
         font-size="14px"
         id="text91">[tut] PortalTutorial</text>
      <polygon
         fill="none"
         stroke="#000000"
         points="398.5,-486 398.5,-416.5 287.75,-416.5 287.75,-486 "
         id="polygon91" />
    </g>
    <!-- P000002D331A3E750&#45;&gt;P000002D331A3E8D0 -->
    <g
       id="edge11"
       class="edge">
      <title
         id="title91">P000002D331A3E750-&gt;P000002D331A3E8D0</title>
      <path
         fill="none"
         stroke="#000000"
         d="M 337.96,-526.16 C 338.5,-518.42 339.11,-509.68 339.72,-501.01"
         id="path91" />
      <polygon
         fill="#000000"
         stroke="#000000"
         points="336.21,-500.96 343.2,-501.45 340.4,-491.23 "
         id="polygon92" />
    </g>
    <!-- P000002D3315D9F60 -->
    <g
       id="node13"
       class="node">
      <title
         id="title92">P000002D3315D9F60</title>
      <polygon
         fill="#66cdaa"
         stroke="none"
         points="43.5,-349 43.5,-326.5 9,-326.5 9,-349 "
         id="polygon93" />
      <polygon
         fill="none"
         stroke="#66cdaa"
         points="43.5,-349 43.5,-326.5 9,-326.5 9,-349 "
         id="polygon94" />
      <text
         text-anchor="start"
         x="12"
         y="-333.70001"
         font-family="'Times New Roman', serif"
         font-weight="bold"
         font-size="14px"
         id="text94">END</text>
      <polygon
         fill="#ffffff"
         stroke="none"
         points="71.25,-349 71.25,-326.5 43.5,-326.5 43.5,-349 "
         id="polygon95" />
      <polygon
         fill="none"
         stroke="#ffffff"
         points="71.25,-349 71.25,-326.5 43.5,-326.5 43.5,-349 "
         id="polygon96" />
      <text
         text-anchor="start"
         x="46.5"
         y="-333.70001"
         font-family="'Times New Roman', serif"
         font-size="14px"
         id="text96">0</text>
      <text
         text-anchor="start"
         x="53.25"
         y="-333.70001"
         font-family="'Times New Roman', serif"
         font-style="italic"
         font-size="14px"
         id="text97">ms</text>
      <polygon
         fill="none"
         stroke="#000000"
         points="72.25,-350 72.25,-325.5 8,-325.5 8,-350 "
         id="polygon97" />
    </g>
    <!-- P000002D3315DA6E0&#45;&gt;P000002D3315D9F60 -->
    <g
       id="edge12"
       class="edge">
      <title
         id="title97">P000002D3315DA6E0-&gt;P000002D3315D9F60</title>
      <path
         fill="none"
         stroke="#000000"
         d="M 124.79,-412.5 C 106.06,-396.19 84.69,-377.57 68.11,-363.13"
         id="path97" />
      <polygon
         fill="#000000"
         stroke="#000000"
         points="65.82,-365.77 70.42,-360.49 60.58,-356.57 "
         id="polygon98" />
    </g>
    <!-- P000002D3315DA2E0 -->
    <g
       id="node14"
       class="node">
      <title
         id="title98">P000002D3315DA2E0</title>
      <polygon
         fill="#ffff00"
         stroke="none"
         points="180.75,-360.25 180.75,-337.75 106.88,-337.75 106.88,-360.25 "
         id="polygon99" />
      <polygon
         fill="none"
         stroke="#ffff00"
         points="180.75,-360.25 180.75,-337.75 106.88,-337.75 106.88,-360.25 "
         id="polygon100" />
      <text
         text-anchor="start"
         x="124.31"
         y="-344.95001"
         font-family="'Times New Roman', serif"
         font-weight="bold"
         font-size="14px"
         id="text100">SPLIT</text>
      <polygon
         fill="#ffffff"
         stroke="none"
         points="237.38,-360.25 237.38,-337.75 180.75,-337.75 180.75,-360.25 "
         id="polygon101" />
      <polygon
         fill="none"
         stroke="#ffffff"
         points="237.38,-360.25 237.38,-337.75 180.75,-337.75 180.75,-360.25 "
         id="polygon102" />
      <text
         text-anchor="start"
         x="198.19"
         y="-344.95001"
         font-family="'Times New Roman', serif"
         font-size="14px"
         id="text102">0</text>
      <text
         text-anchor="start"
         x="204.94"
         y="-344.95001"
         font-family="'Times New Roman', serif"
         font-style="italic"
         font-size="14px"
         id="text103">ms</text>
      <polygon
         fill="none"
         stroke="#d3d3d3"
         points="237.38,-337.75 237.38,-315.25 106.88,-315.25 106.88,-337.75 "
         id="polygon103" />
      <text
         text-anchor="start"
         x="109.88"
         y="-321.45001"
         font-family="'Times New Roman', serif"
         font-size="14px"
         id="text104">BLOCK_ENTRANCE</text>
      <polygon
         fill="none"
         stroke="#000000"
         points="238.38,-361.25 238.38,-314.25 105.88,-314.25 105.88,-361.25 "
         id="polygon104" />
    </g>
    <!-- P000002D3315DA6E0&#45;&gt;P000002D3315DA2E0 -->
    <g
       id="edge13"
       class="edge">
      <title
         id="title104">P000002D3315DA6E0-&gt;P000002D3315DA2E0</title>
      <path
         fill="none"
         stroke="#000000"
         d="M 169.48,-412.5 C 169.9,-400.84 170.36,-388.01 170.78,-376.37"
         id="path104" />
      <polygon
         fill="#000000"
         stroke="#000000"
         points="167.27,-376.58 174.26,-376.83 171.12,-366.71 "
         id="polygon105" />
    </g>
    <!-- P000002D331A3E950 -->
    <g
       id="node15"
       class="node">
      <title
         id="title105">P000002D331A3E950</title>
      <polygon
         fill="#7fffd4"
         stroke="none"
         points="352.88,-371.5 352.88,-349 276.75,-349 276.75,-371.5 "
         id="polygon106" />
      <polygon
         fill="none"
         stroke="#7fffd4"
         points="352.88,-371.5 352.88,-349 276.75,-349 276.75,-371.5 "
         id="polygon107" />
      <text
         text-anchor="start"
         x="287.44"
         y="-356.20001"
         font-family="'Times New Roman', serif"
         font-weight="bold"
         font-size="14px"
         id="text107">EXPECT</text>
      <polygon
         fill="#ffffff"
         stroke="none"
         points="409.5,-371.5 409.5,-349 352.88,-349 352.88,-371.5 "
         id="polygon108" />
      <polygon
         fill="none"
         stroke="#ffffff"
         points="409.5,-371.5 409.5,-349 352.88,-349 352.88,-371.5 "
         id="polygon109" />
      <text
         text-anchor="start"
         x="363.56"
         y="-356.20001"
         font-family="'Times New Roman', serif"
         font-size="14px"
         id="text109">546</text>
      <text
         text-anchor="start"
         x="383.81"
         y="-356.20001"
         font-family="'Times New Roman', serif"
         font-style="italic"
         font-size="14px"
         id="text110">ms</text>
      <polygon
         fill="none"
         stroke="#d3d3d3"
         points="409.5,-349 409.5,-326.5 276.75,-326.5 276.75,-349 "
         id="polygon110" />
      <text
         text-anchor="start"
         x="292.88"
         y="-332.70001"
         font-family="'Times New Roman', serif"
         font-size="14px"
         id="text111">UNREACHABLE</text>
      <polygon
         fill="none"
         stroke="#d3d3d3"
         points="409.5,-326.5 409.5,-304 276.75,-304 276.75,-326.5 "
         id="polygon111" />
      <text
         text-anchor="start"
         x="279.75"
         y="-310.20001"
         font-family="'Times New Roman', serif"
         font-size="14px"
         id="text112">[tut] FinishAllTutorials</text>
      <polygon
         fill="none"
         stroke="#000000"
         points="410.5,-372.5 410.5,-303 275.75,-303 275.75,-372.5 "
         id="polygon112" />
    </g>
    <!-- P000002D331A3E8D0&#45;&gt;P000002D331A3E950 -->
    <g
       id="edge14"
       class="edge">
      <title
         id="title112">P000002D331A3E8D0-&gt;P000002D331A3E950</title>
      <path
         fill="none"
         stroke="#000000"
         d="M 343.12,-412.5 C 343.12,-404.6 343.12,-396.16 343.12,-387.91"
         id="path112" />
      <polygon
         fill="#000000"
         stroke="#000000"
         points="339.63,-387.97 346.63,-387.97 343.13,-377.97 "
         id="polygon113" />
    </g>
    <!-- P000002D3315DA460 -->
    <g
       id="node16"
       class="node">
      <title
         id="title113">P000002D3315DA460</title>
      <polygon
         fill="#7fffd4"
         stroke="none"
         points="188.62,-258 188.62,-235.5 117.75,-235.5 117.75,-258 "
         id="polygon114" />
      <polygon
         fill="none"
         stroke="#7fffd4"
         points="188.62,-258 188.62,-235.5 117.75,-235.5 117.75,-258 "
         id="polygon115" />
      <text
         text-anchor="start"
         x="125.81"
         y="-242.7"
         font-family="'Times New Roman', serif"
         font-weight="bold"
         font-size="14px"
         id="text115">EXPECT</text>
      <polygon
         fill="#ffffff"
         stroke="none"
         points="226.5,-258 226.5,-235.5 188.62,-235.5 188.62,-258 "
         id="polygon116" />
      <polygon
         fill="none"
         stroke="#ffffff"
         points="226.5,-258 226.5,-235.5 188.62,-235.5 188.62,-258 "
         id="polygon117" />
      <text
         text-anchor="start"
         x="196.69"
         y="-242.7"
         font-family="'Times New Roman', serif"
         font-size="14px"
         id="text117">0</text>
      <text
         text-anchor="start"
         x="203.44"
         y="-242.7"
         font-family="'Times New Roman', serif"
         font-style="italic"
         font-size="14px"
         id="text118">ms</text>
      <polygon
         fill="none"
         stroke="#d3d3d3"
         points="226.5,-235.5 226.5,-213 117.75,-213 117.75,-235.5 "
         id="polygon118" />
      <text
         text-anchor="start"
         x="121.88"
         y="-219.2"
         font-family="'Times New Roman', serif"
         font-size="14px"
         id="text119">UNREACHABLE</text>
      <polygon
         fill="none"
         stroke="#d3d3d3"
         points="226.5,-213 226.5,-190.5 117.75,-190.5 117.75,-213 "
         id="polygon119" />
      <text
         text-anchor="start"
         x="120.75"
         y="-196.7"
         font-family="'Times New Roman', serif"
         font-size="14px"
         id="text120">[tut] PortalTutorial</text>
      <polygon
         fill="none"
         stroke="#000000"
         points="227.5,-259 227.5,-189.5 116.75,-189.5 116.75,-259 "
         id="polygon120" />
    </g>
    <!-- P000002D3315DA2E0&#45;&gt;P000002D3315DA460 -->
    <g
       id="edge15"
       class="edge">
      <title
         id="title120">P000002D3315DA2E0-&gt;P000002D3315DA460</title>
      <path
         fill="none"
         stroke="#000000"
         d="M 172.12,-310.33 C 172.12,-299.48 172.12,-286.56 172.12,-274.11"
         id="path120" />
      <polygon
         fill="#000000"
         stroke="#000000"
         points="168.63,-274.39 175.63,-274.39 172.13,-264.39 "
         id="polygon121" />
    </g>
    <!-- P000002D331A3EC50 -->
    <g
       id="node17"
       class="node">
      <title
         id="title121">P000002D331A3EC50</title>
      <polygon
         fill="#66cdaa"
         stroke="none"
         points="346.5,-235.5 346.5,-213 312,-213 312,-235.5 "
         id="polygon122" />
      <polygon
         fill="none"
         stroke="#66cdaa"
         points="346.5,-235.5 346.5,-213 312,-213 312,-235.5 "
         id="polygon123" />
      <text
         text-anchor="start"
         x="315"
         y="-220.2"
         font-family="'Times New Roman', serif"
         font-weight="bold"
         font-size="14px"
         id="text123">END</text>
      <polygon
         fill="#ffffff"
         stroke="none"
         points="374.25,-235.5 374.25,-213 346.5,-213 346.5,-235.5 "
         id="polygon124" />
      <polygon
         fill="none"
         stroke="#ffffff"
         points="374.25,-235.5 374.25,-213 346.5,-213 346.5,-235.5 "
         id="polygon125" />
      <text
         text-anchor="start"
         x="349.5"
         y="-220.2"
         font-family="'Times New Roman', serif"
         font-size="14px"
         id="text125">0</text>
      <text
         text-anchor="start"
         x="356.25"
         y="-220.2"
         font-family="'Times New Roman', serif"
         font-style="italic"
         font-size="14px"
         id="text126">ms</text>
      <polygon
         fill="none"
         stroke="#000000"
         points="375.25,-236.5 375.25,-212 311,-212 311,-236.5 "
         id="polygon126" />
    </g>
    <!-- P000002D331A3E950&#45;&gt;P000002D331A3EC50 -->
    <g
       id="edge16"
       class="edge">
      <title
         id="title126">P000002D331A3E950-&gt;P000002D331A3EC50</title>
      <path
         fill="none"
         stroke="#000000"
         d="M 343.12,-299 C 343.12,-284.05 343.12,-267.16 343.12,-253.32"
         id="path126" />
      <polygon
         fill="#000000"
         stroke="#000000"
         points="339.63,-253.58 346.63,-253.58 343.13,-243.58 "
         id="polygon127" />
    </g>
    <!-- P000002D3315DA4E0 -->
    <g
       id="node18"
       class="node">
      <title
         id="title127">P000002D3315DA4E0</title>
      <polygon
         fill="#7fffd4"
         stroke="none"
         points="181.88,-144.5 181.88,-122 105.75,-122 105.75,-144.5 "
         id="polygon128" />
      <polygon
         fill="none"
         stroke="#7fffd4"
         points="181.88,-144.5 181.88,-122 105.75,-122 105.75,-144.5 "
         id="polygon129" />
      <text
         text-anchor="start"
         x="116.44"
         y="-129.2"
         font-family="'Times New Roman', serif"
         font-weight="bold"
         font-size="14px"
         id="text129">EXPECT</text>
      <polygon
         fill="#ffffff"
         stroke="none"
         points="238.5,-144.5 238.5,-122 181.88,-122 181.88,-144.5 "
         id="polygon130" />
      <polygon
         fill="none"
         stroke="#ffffff"
         points="238.5,-144.5 238.5,-122 181.88,-122 181.88,-144.5 "
         id="polygon131" />
      <text
         text-anchor="start"
         x="192.56"
         y="-129.2"
         font-family="'Times New Roman', serif"
         font-size="14px"
         id="text131">354</text>
      <text
         text-anchor="start"
         x="212.81"
         y="-129.2"
         font-family="'Times New Roman', serif"
         font-style="italic"
         font-size="14px"
         id="text132">ms</text>
      <polygon
         fill="none"
         stroke="#d3d3d3"
         points="238.5,-122 238.5,-99.5 105.75,-99.5 105.75,-122 "
         id="polygon132" />
      <text
         text-anchor="start"
         x="121.88"
         y="-105.7"
         font-family="'Times New Roman', serif"
         font-size="14px"
         id="text133">UNREACHABLE</text>
      <polygon
         fill="none"
         stroke="#d3d3d3"
         points="238.5,-99.5 238.5,-77 105.75,-77 105.75,-99.5 "
         id="polygon133" />
      <text
         text-anchor="start"
         x="108.75"
         y="-83.199997"
         font-family="'Times New Roman', serif"
         font-size="14px"
         id="text134">[tut] FinishAllTutorials</text>
      <polygon
         fill="none"
         stroke="#000000"
         points="239.5,-145.5 239.5,-76 104.75,-76 104.75,-145.5 "
         id="polygon134" />
    </g>
    <!-- P000002D3315DA460&#45;&gt;P000002D3315DA4E0 -->
    <g
       id="edge17"
       class="edge">
      <title
         id="title134">P000002D3315DA460-&gt;P000002D3315DA4E0</title>
      <path
         fill="none"
         stroke="#000000"
         d="M 172.12,-185.5 C 172.12,-177.6 172.12,-169.16 172.12,-160.91"
         id="path134" />
      <polygon
         fill="#000000"
         stroke="#000000"
         points="168.63,-160.97 175.63,-160.97 172.13,-150.97 "
         id="polygon135" />
    </g>
    <!-- P000002D3315C9F00 -->
    <g
       id="node19"
       class="node">
      <title
         id="title135">P000002D3315C9F00</title>
      <polygon
         fill="#66cdaa"
         stroke="none"
         points="175.5,-29.25 175.5,-6.75 141,-6.75 141,-29.25 "
         id="polygon136" />
      <polygon
         fill="none"
         stroke="#66cdaa"
         points="175.5,-29.25 175.5,-6.75 141,-6.75 141,-29.25 "
         id="polygon137" />
      <text
         text-anchor="start"
         x="144"
         y="-13.95"
         font-family="'Times New Roman', serif"
         font-weight="bold"
         font-size="14px"
         id="text137">END</text>
      <polygon
         fill="#ffffff"
         stroke="none"
         points="203.25,-29.25 203.25,-6.75 175.5,-6.75 175.5,-29.25 "
         id="polygon138" />
      <polygon
         fill="none"
         stroke="#ffffff"
         points="203.25,-29.25 203.25,-6.75 175.5,-6.75 175.5,-29.25 "
         id="polygon139" />
      <text
         text-anchor="start"
         x="178.5"
         y="-13.95"
         font-family="'Times New Roman', serif"
         font-size="14px"
         id="text139">0</text>
      <text
         text-anchor="start"
         x="185.25"
         y="-13.95"
         font-family="'Times New Roman', serif"
         font-style="italic"
         font-size="14px"
         id="text140">ms</text>
      <polygon
         fill="none"
         stroke="#000000"
         points="204.25,-30.25 204.25,-5.75 140,-5.75 140,-30.25 "
         id="polygon140" />
    </g>
    <!-- P000002D3315DA4E0&#45;&gt;P000002D3315C9F00 -->
    <g
       id="edge18"
       class="edge">
      <title
         id="title140">P000002D3315DA4E0-&gt;P000002D3315C9F00</title>
      <path
         fill="none"
         stroke="#000000"
         d="M 172.12,-72.05 C 172.12,-63.64 172.12,-54.87 172.12,-46.94"
         id="path140" />
      <polygon
         fill="#000000"
         stroke="#000000"
         points="168.63,-47.22 175.63,-47.22 172.13,-37.22 "
         id="polygon141" />
    </g>
  </g>
</svg>
