<?xml version="1.0" encoding="UTF-8" standalone="no"?>
<!DOCTYPE svg PUBLIC "-//W3C//DTD SVG 1.1//EN"
 "http://www.w3.org/Graphics/SVG/1.1/DTD/svg11.dtd">
<!-- Generated by graphviz version 12.2.1 (20241206.2353)
 -->
<!-- Title: mozok Pages: 1 -->
<svg width="525pt" height="1338pt"
 viewBox="0.00 0.00 525.00 1337.50" xmlns="http://www.w3.org/2000/svg" xmlns:xlink="http://www.w3.org/1999/xlink">
<g id="graph0" class="graph" transform="scale(1 1) rotate(0) translate(4 1333.5)">
<title>mozok</title>
<polygon fill="white" stroke="none" points="-4,4 -4,-1333.5 521,-1333.5 521,4 -4,4"/>
<!-- P000002E2C5695290 -->
<g id="node1" class="node">
<title>P000002E2C5695290</title>
<polygon fill="MediumAquamarine" stroke="none" points="129.75,-1302 129.75,-1324.5 182.25,-1324.5 182.25,-1302 129.75,-1302"/>
<polygon fill="none" stroke="MediumAquamarine" points="129.75,-1302 129.75,-1324.5 182.25,-1324.5 182.25,-1302 129.75,-1302"/>
<text text-anchor="start" x="133.88" y="-1309.2" font-family="Times New Roman,serif" font-weight="bold" font-size="14.00">START</text>
<polygon fill="#ffffff" stroke="none" points="182.25,-1302 182.25,-1324.5 212.25,-1324.5 212.25,-1302 182.25,-1302"/>
<polygon fill="none" stroke="#ffffff" points="182.25,-1302 182.25,-1324.5 212.25,-1324.5 212.25,-1302 182.25,-1302"/>
<text text-anchor="start" x="186.38" y="-1309.2" font-family="Times New Roman,serif" font-size="14.00">0</text>
<text text-anchor="start" x="193.12" y="-1309.2" font-family="Times New Roman,serif" font-style="italic" font-size="14.00">ms</text>
<polygon fill="none" stroke="lightgray" points="129.75,-1279.5 129.75,-1302 212.25,-1302 212.25,-1279.5 129.75,-1279.5"/>
<text text-anchor="start" x="132.75" y="-1285.7" font-family="Times New Roman,serif" font-size="14.00">File: main.qsf</text>
<polygon fill="none" stroke="lightgray" points="129.75,-1257 129.75,-1279.5 212.25,-1279.5 212.25,-1257 129.75,-1257"/>
<text text-anchor="start" x="140.62" y="-1263.2" font-family="Times New Roman,serif" font-size="14.00">Init: TRUE</text>
<polygon fill="none" stroke="black" points="128.75,-1256 128.75,-1325.5 213.25,-1325.5 213.25,-1256 128.75,-1256"/>
</g>
<!-- P000002E2C569EA90 -->
<g id="node2" class="node">
<title>P000002E2C569EA90</title>
<polygon fill="Plum" stroke="none" points="101.25,-1188.5 101.25,-1211 213,-1211 213,-1188.5 101.25,-1188.5"/>
<polygon fill="none" stroke="Plum" points="101.25,-1188.5 101.25,-1211 213,-1211 213,-1188.5 101.25,-1188.5"/>
<text text-anchor="start" x="104.25" y="-1195.7" font-family="Times New Roman,serif" font-weight="bold" font-size="14.00">onNewMainQuest</text>
<polygon fill="#ffffff" stroke="none" points="213,-1188.5 213,-1211 240.75,-1211 240.75,-1188.5 213,-1188.5"/>
<polygon fill="none" stroke="#ffffff" points="213,-1188.5 213,-1211 240.75,-1211 240.75,-1188.5 213,-1188.5"/>
<text text-anchor="start" x="216" y="-1195.7" font-family="Times New Roman,serif" font-size="14.00">0</text>
<text text-anchor="start" x="222.75" y="-1195.7" font-family="Times New Roman,serif" font-style="italic" font-size="14.00">ms</text>
<polygon fill="none" stroke="lightgray" points="101.25,-1166 101.25,-1188.5 240.75,-1188.5 240.75,-1166 101.25,-1166"/>
<text text-anchor="start" x="117" y="-1172.2" font-family="Times New Roman,serif" font-size="14.00">[game] SaveFamily</text>
<polygon fill="none" stroke="black" points="100.25,-1165 100.25,-1212 241.75,-1212 241.75,-1165 100.25,-1165"/>
</g>
<!-- P000002E2C5695290&#45;&gt;P000002E2C569EA90 -->
<g id="edge1" class="edge">
<title>P000002E2C5695290&#45;&gt;P000002E2C569EA90</title>
<path fill="none" stroke="black" d="M171,-1252.14C171,-1244 171,-1235.39 171,-1227.25"/>
<polygon fill="black" stroke="black" points="174.5,-1227.27 171,-1217.27 167.5,-1227.27 174.5,-1227.27"/>
</g>
<!-- P000002E2C56C7460 -->
<g id="node3" class="node">
<title>P000002E2C56C7460</title>
<polygon fill="Plum" stroke="none" points="99,-1097.5 99,-1120 215.25,-1120 215.25,-1097.5 99,-1097.5"/>
<polygon fill="none" stroke="Plum" points="99,-1097.5 99,-1120 215.25,-1120 215.25,-1097.5 99,-1097.5"/>
<text text-anchor="start" x="102" y="-1104.7" font-family="Times New Roman,serif" font-weight="bold" font-size="14.00">onNewQuestStatus</text>
<polygon fill="#ffffff" stroke="none" points="215.25,-1097.5 215.25,-1120 243,-1120 243,-1097.5 215.25,-1097.5"/>
<polygon fill="none" stroke="#ffffff" points="215.25,-1097.5 215.25,-1120 243,-1120 243,-1097.5 215.25,-1097.5"/>
<text text-anchor="start" x="218.25" y="-1104.7" font-family="Times New Roman,serif" font-size="14.00">2</text>
<text text-anchor="start" x="225" y="-1104.7" font-family="Times New Roman,serif" font-style="italic" font-size="14.00">ms</text>
<polygon fill="none" stroke="lightgray" points="99,-1075 99,-1097.5 243,-1097.5 243,-1075 99,-1075"/>
<text text-anchor="start" x="117" y="-1081.2" font-family="Times New Roman,serif" font-size="14.00">[game] SaveFamily</text>
<polygon fill="none" stroke="lightgray" points="99,-1052.5 99,-1075 243,-1075 243,-1052.5 99,-1052.5"/>
<text text-anchor="start" x="130.5" y="-1058.7" font-family="Times New Roman,serif" font-size="14.00">REACHABLE</text>
<polygon fill="none" stroke="black" points="98,-1051.5 98,-1121 244,-1121 244,-1051.5 98,-1051.5"/>
</g>
<!-- P000002E2C569EA90&#45;&gt;P000002E2C56C7460 -->
<g id="edge2" class="edge">
<title>P000002E2C569EA90&#45;&gt;P000002E2C56C7460</title>
<path fill="none" stroke="black" d="M171,-1161.16C171,-1153.42 171,-1144.68 171,-1136.01"/>
<polygon fill="black" stroke="black" points="174.5,-1136.24 171,-1126.24 167.5,-1136.24 174.5,-1136.24"/>
</g>
<!-- P000002E2C56C7380 -->
<g id="node4" class="node">
<title>P000002E2C56C7380</title>
<polygon fill="Plum" stroke="none" points="105.75,-984 105.75,-1006.5 208.5,-1006.5 208.5,-984 105.75,-984"/>
<polygon fill="none" stroke="Plum" points="105.75,-984 105.75,-1006.5 208.5,-1006.5 208.5,-984 105.75,-984"/>
<text text-anchor="start" x="108.75" y="-991.2" font-family="Times New Roman,serif" font-weight="bold" font-size="14.00">onNewSubQuest</text>
<polygon fill="#ffffff" stroke="none" points="208.5,-984 208.5,-1006.5 236.25,-1006.5 236.25,-984 208.5,-984"/>
<polygon fill="none" stroke="#ffffff" points="208.5,-984 208.5,-1006.5 236.25,-1006.5 236.25,-984 208.5,-984"/>
<text text-anchor="start" x="211.5" y="-991.2" font-family="Times New Roman,serif" font-size="14.00">1</text>
<text text-anchor="start" x="218.25" y="-991.2" font-family="Times New Roman,serif" font-style="italic" font-size="14.00">ms</text>
<polygon fill="none" stroke="lightgray" points="105.75,-961.5 105.75,-984 236.25,-984 236.25,-961.5 105.75,-961.5"/>
<text text-anchor="start" x="123" y="-967.7" font-family="Times New Roman,serif" font-size="14.00">[game] SaveWife</text>
<polygon fill="none" stroke="lightgray" points="105.75,-939 105.75,-961.5 236.25,-961.5 236.25,-939 105.75,-939"/>
<text text-anchor="start" x="138.38" y="-945.2" font-family="Times New Roman,serif" font-size="14.00">SaveFamily</text>
<polygon fill="none" stroke="lightgray" points="105.75,-916.5 105.75,-939 236.25,-939 236.25,-916.5 105.75,-916.5"/>
<text text-anchor="start" x="165.38" y="-922.7" font-family="Times New Roman,serif" font-size="14.00">...</text>
<polygon fill="none" stroke="black" points="104.75,-915.5 104.75,-1007.5 237.25,-1007.5 237.25,-915.5 104.75,-915.5"/>
</g>
<!-- P000002E2C56C7460&#45;&gt;P000002E2C56C7380 -->
<g id="edge3" class="edge">
<title>P000002E2C56C7460&#45;&gt;P000002E2C56C7380</title>
<path fill="none" stroke="black" d="M171,-1047.75C171,-1039.71 171,-1031.03 171,-1022.38"/>
<polygon fill="black" stroke="black" points="174.5,-1022.6 171,-1012.6 167.5,-1022.6 174.5,-1022.6"/>
</g>
<!-- P000002E2C56B15B0 -->
<g id="node5" class="node">
<title>P000002E2C56B15B0</title>
<polygon fill="Plum" stroke="none" points="99,-848 99,-870.5 215.25,-870.5 215.25,-848 99,-848"/>
<polygon fill="none" stroke="Plum" points="99,-848 99,-870.5 215.25,-870.5 215.25,-848 99,-848"/>
<text text-anchor="start" x="102" y="-855.2" font-family="Times New Roman,serif" font-weight="bold" font-size="14.00">onNewQuestStatus</text>
<polygon fill="#ffffff" stroke="none" points="215.25,-848 215.25,-870.5 243,-870.5 243,-848 215.25,-848"/>
<polygon fill="none" stroke="#ffffff" points="215.25,-848 215.25,-870.5 243,-870.5 243,-848 215.25,-848"/>
<text text-anchor="start" x="218.25" y="-855.2" font-family="Times New Roman,serif" font-size="14.00">2</text>
<text text-anchor="start" x="225" y="-855.2" font-family="Times New Roman,serif" font-style="italic" font-size="14.00">ms</text>
<polygon fill="none" stroke="lightgray" points="99,-825.5 99,-848 243,-848 243,-825.5 99,-825.5"/>
<text text-anchor="start" x="123" y="-831.7" font-family="Times New Roman,serif" font-size="14.00">[game] SaveWife</text>
<polygon fill="none" stroke="lightgray" points="99,-803 99,-825.5 243,-825.5 243,-803 99,-803"/>
<text text-anchor="start" x="130.5" y="-809.2" font-family="Times New Roman,serif" font-size="14.00">REACHABLE</text>
<polygon fill="none" stroke="black" points="98,-802 98,-871.5 244,-871.5 244,-802 98,-802"/>
</g>
<!-- P000002E2C56C7380&#45;&gt;P000002E2C56B15B0 -->
<g id="edge4" class="edge">
<title>P000002E2C56C7380&#45;&gt;P000002E2C56B15B0</title>
<path fill="none" stroke="black" d="M171,-911.63C171,-903.45 171,-894.96 171,-886.78"/>
<polygon fill="black" stroke="black" points="174.5,-886.99 171,-876.99 167.5,-886.99 174.5,-886.99"/>
</g>
<!-- P000002E2C56A0850 -->
<g id="node6" class="node">
<title>P000002E2C56A0850</title>
<polygon fill="Plum" stroke="none" points="14,-734.5 14,-757 130.25,-757 130.25,-734.5 14,-734.5"/>
<polygon fill="none" stroke="Plum" points="14,-734.5 14,-757 130.25,-757 130.25,-734.5 14,-734.5"/>
<text text-anchor="start" x="17" y="-741.7" font-family="Times New Roman,serif" font-weight="bold" font-size="14.00">onNewQuestStatus</text>
<polygon fill="#ffffff" stroke="none" points="130.25,-734.5 130.25,-757 158,-757 158,-734.5 130.25,-734.5"/>
<polygon fill="none" stroke="#ffffff" points="130.25,-734.5 130.25,-757 158,-757 158,-734.5 130.25,-734.5"/>
<text text-anchor="start" x="133.25" y="-741.7" font-family="Times New Roman,serif" font-size="14.00">0</text>
<text text-anchor="start" x="140" y="-741.7" font-family="Times New Roman,serif" font-style="italic" font-size="14.00">ms</text>
<polygon fill="none" stroke="lightgray" points="14,-712 14,-734.5 158,-734.5 158,-712 14,-712"/>
<text text-anchor="start" x="38" y="-718.2" font-family="Times New Roman,serif" font-size="14.00">[game] SaveWife</text>
<polygon fill="none" stroke="lightgray" points="14,-689.5 14,-712 158,-712 158,-689.5 14,-689.5"/>
<text text-anchor="start" x="66.12" y="-696.7" font-family="Times New Roman,serif" font-weight="bold" font-size="14.00" fill="darkgreen">DONE</text>
<polygon fill="none" stroke="black" points="13,-688.5 13,-758 159,-758 159,-688.5 13,-688.5"/>
</g>
<!-- P000002E2C56B15B0&#45;&gt;P000002E2C56A0850 -->
<g id="edge5" class="edge">
<title>P000002E2C56B15B0&#45;&gt;P000002E2C56A0850</title>
<path fill="none" stroke="black" d="M142.22,-798C135.58,-789.28 128.43,-779.91 121.53,-770.86"/>
<polygon fill="black" stroke="black" points="124.51,-768.99 115.67,-763.16 118.94,-773.24 124.51,-768.99"/>
</g>
<!-- P000002E2C56B0160 -->
<g id="node7" class="node">
<title>P000002E2C56B0160</title>
<polygon fill="Yellow" stroke="none" points="199.5,-723.25 199.5,-745.75 269.62,-745.75 269.62,-723.25 199.5,-723.25"/>
<polygon fill="none" stroke="Yellow" points="199.5,-723.25 199.5,-745.75 269.62,-745.75 269.62,-723.25 199.5,-723.25"/>
<text text-anchor="start" x="215.06" y="-730.45" font-family="Times New Roman,serif" font-weight="bold" font-size="14.00">SPLIT</text>
<polygon fill="#ffffff" stroke="none" points="269.62,-723.25 269.62,-745.75 322.5,-745.75 322.5,-723.25 269.62,-723.25"/>
<polygon fill="none" stroke="#ffffff" points="269.62,-723.25 269.62,-745.75 322.5,-745.75 322.5,-723.25 269.62,-723.25"/>
<text text-anchor="start" x="285.19" y="-730.45" font-family="Times New Roman,serif" font-size="14.00">3</text>
<text text-anchor="start" x="291.94" y="-730.45" font-family="Times New Roman,serif" font-style="italic" font-size="14.00">ms</text>
<polygon fill="none" stroke="lightgray" points="199.5,-700.75 199.5,-723.25 322.5,-723.25 322.5,-700.75 199.5,-700.75"/>
<text text-anchor="start" x="202.5" y="-706.95" font-family="Times New Roman,serif" font-size="14.00">STEAL_ANTIDOTE</text>
<polygon fill="none" stroke="black" points="198.5,-699.75 198.5,-746.75 323.5,-746.75 323.5,-699.75 198.5,-699.75"/>
</g>
<!-- P000002E2C56B15B0&#45;&gt;P000002E2C56B0160 -->
<g id="edge6" class="edge">
<title>P000002E2C56B15B0&#45;&gt;P000002E2C56B0160</title>
<path fill="none" stroke="black" d="M201.47,-798C211.56,-785.49 222.75,-771.63 232.68,-759.34"/>
<polygon fill="black" stroke="black" points="235.14,-761.86 238.7,-751.88 229.69,-757.46 235.14,-761.86"/>
</g>
<!-- P000002E2C56ACC80 -->
<g id="node8" class="node">
<title>P000002E2C56ACC80</title>
<polygon fill="Plum" stroke="none" points="9,-621 9,-643.5 125.25,-643.5 125.25,-621 9,-621"/>
<polygon fill="none" stroke="Plum" points="9,-621 9,-643.5 125.25,-643.5 125.25,-621 9,-621"/>
<text text-anchor="start" x="12" y="-628.2" font-family="Times New Roman,serif" font-weight="bold" font-size="14.00">onNewQuestStatus</text>
<polygon fill="#ffffff" stroke="none" points="125.25,-621 125.25,-643.5 153,-643.5 153,-621 125.25,-621"/>
<polygon fill="none" stroke="#ffffff" points="125.25,-621 125.25,-643.5 153,-643.5 153,-621 125.25,-621"/>
<text text-anchor="start" x="128.25" y="-628.2" font-family="Times New Roman,serif" font-size="14.00">0</text>
<text text-anchor="start" x="135" y="-628.2" font-family="Times New Roman,serif" font-style="italic" font-size="14.00">ms</text>
<polygon fill="none" stroke="lightgray" points="9,-598.5 9,-621 153,-621 153,-598.5 9,-598.5"/>
<text text-anchor="start" x="27" y="-604.7" font-family="Times New Roman,serif" font-size="14.00">[game] SaveFamily</text>
<polygon fill="none" stroke="lightgray" points="9,-576 9,-598.5 153,-598.5 153,-576 9,-576"/>
<text text-anchor="start" x="61.12" y="-583.2" font-family="Times New Roman,serif" font-weight="bold" font-size="14.00" fill="darkgreen">DONE</text>
<polygon fill="none" stroke="black" points="8,-575 8,-644.5 154,-644.5 154,-575 8,-575"/>
</g>
<!-- P000002E2C56A0850&#45;&gt;P000002E2C56ACC80 -->
<g id="edge7" class="edge">
<title>P000002E2C56A0850&#45;&gt;P000002E2C56ACC80</title>
<path fill="none" stroke="black" d="M84.31,-684.5C83.95,-676.6 83.57,-668.16 83.2,-659.91"/>
<polygon fill="black" stroke="black" points="86.7,-659.81 82.76,-649.97 79.71,-660.12 86.7,-659.81"/>
</g>
<!-- P000002E2C56AA550 -->
<g id="node9" class="node">
<title>P000002E2C56AA550</title>
<polygon fill="Plum" stroke="none" points="189,-621 189,-643.5 305.25,-643.5 305.25,-621 189,-621"/>
<polygon fill="none" stroke="Plum" points="189,-621 189,-643.5 305.25,-643.5 305.25,-621 189,-621"/>
<text text-anchor="start" x="192" y="-628.2" font-family="Times New Roman,serif" font-weight="bold" font-size="14.00">onNewQuestStatus</text>
<polygon fill="#ffffff" stroke="none" points="305.25,-621 305.25,-643.5 333,-643.5 333,-621 305.25,-621"/>
<polygon fill="none" stroke="#ffffff" points="305.25,-621 305.25,-643.5 333,-643.5 333,-621 305.25,-621"/>
<text text-anchor="start" x="308.25" y="-628.2" font-family="Times New Roman,serif" font-size="14.00">2</text>
<text text-anchor="start" x="315" y="-628.2" font-family="Times New Roman,serif" font-style="italic" font-size="14.00">ms</text>
<polygon fill="none" stroke="lightgray" points="189,-598.5 189,-621 333,-621 333,-598.5 189,-598.5"/>
<text text-anchor="start" x="213" y="-604.7" font-family="Times New Roman,serif" font-size="14.00">[game] SaveWife</text>
<polygon fill="none" stroke="lightgray" points="189,-576 189,-598.5 333,-598.5 333,-576 189,-576"/>
<text text-anchor="start" x="241.12" y="-583.2" font-family="Times New Roman,serif" font-weight="bold" font-size="14.00" fill="darkgreen">DONE</text>
<polygon fill="none" stroke="black" points="188,-575 188,-644.5 334,-644.5 334,-575 188,-575"/>
</g>
<!-- P000002E2C56B0160&#45;&gt;P000002E2C56AA550 -->
<g id="edge8" class="edge">
<title>P000002E2C56B0160&#45;&gt;P000002E2C56AA550</title>
<path fill="none" stroke="black" d="M261,-695.83C261,-684.98 261,-672.06 261,-659.61"/>
<polygon fill="black" stroke="black" points="264.5,-659.89 261,-649.89 257.5,-659.89 264.5,-659.89"/>
</g>
<!-- P000002E2C56AA150 -->
<g id="node10" class="node">
<title>P000002E2C56AA150</title>
<polygon fill="Yellow" stroke="none" points="369.62,-609.75 369.62,-632.25 444.62,-632.25 444.62,-609.75 369.62,-609.75"/>
<polygon fill="none" stroke="Yellow" points="369.62,-609.75 369.62,-632.25 444.62,-632.25 444.62,-609.75 369.62,-609.75"/>
<text text-anchor="start" x="387.62" y="-616.95" font-family="Times New Roman,serif" font-weight="bold" font-size="14.00">SPLIT</text>
<polygon fill="#ffffff" stroke="none" points="444.62,-609.75 444.62,-632.25 502.38,-632.25 502.38,-609.75 444.62,-609.75"/>
<polygon fill="none" stroke="#ffffff" points="444.62,-609.75 444.62,-632.25 502.38,-632.25 502.38,-609.75 444.62,-609.75"/>
<text text-anchor="start" x="462.62" y="-616.95" font-family="Times New Roman,serif" font-size="14.00">0</text>
<text text-anchor="start" x="469.38" y="-616.95" font-family="Times New Roman,serif" font-style="italic" font-size="14.00">ms</text>
<polygon fill="none" stroke="lightgray" points="369.62,-587.25 369.62,-609.75 502.38,-609.75 502.38,-587.25 369.62,-587.25"/>
<text text-anchor="start" x="372.62" y="-593.45" font-family="Times New Roman,serif" font-size="14.00">WRONG_ANTIDOTE</text>
<polygon fill="none" stroke="black" points="368.62,-586.25 368.62,-633.25 503.38,-633.25 503.38,-586.25 368.62,-586.25"/>
</g>
<!-- P000002E2C56B0160&#45;&gt;P000002E2C56AA150 -->
<g id="edge9" class="edge">
<title>P000002E2C56B0160&#45;&gt;P000002E2C56AA150</title>
<path fill="none" stroke="black" d="M302.47,-695.83C327.23,-680.05 358.85,-659.9 385.11,-643.17"/>
<polygon fill="black" stroke="black" points="386.69,-646.32 393.25,-637.99 382.93,-640.41 386.69,-646.32"/>
</g>
<!-- P000002E2C56A0570 -->
<g id="node11" class="node">
<title>P000002E2C56A0570</title>
<polygon fill="MediumAquamarine" stroke="none" points="49.88,-473.75 49.88,-496.25 84.38,-496.25 84.38,-473.75 49.88,-473.75"/>
<polygon fill="none" stroke="MediumAquamarine" points="49.88,-473.75 49.88,-496.25 84.38,-496.25 84.38,-473.75 49.88,-473.75"/>
<text text-anchor="start" x="52.88" y="-480.95" font-family="Times New Roman,serif" font-weight="bold" font-size="14.00">END</text>
<polygon fill="#ffffff" stroke="none" points="84.38,-473.75 84.38,-496.25 112.12,-496.25 112.12,-473.75 84.38,-473.75"/>
<polygon fill="none" stroke="#ffffff" points="84.38,-473.75 84.38,-496.25 112.12,-496.25 112.12,-473.75 84.38,-473.75"/>
<text text-anchor="start" x="87.38" y="-480.95" font-family="Times New Roman,serif" font-size="14.00">0</text>
<text text-anchor="start" x="94.12" y="-480.95" font-family="Times New Roman,serif" font-style="italic" font-size="14.00">ms</text>
<polygon fill="none" stroke="black" points="48.88,-472.75 48.88,-497.25 113.12,-497.25 113.12,-472.75 48.88,-472.75"/>
</g>
<!-- P000002E2C56ACC80&#45;&gt;P000002E2C56A0570 -->
<g id="edge10" class="edge">
<title>P000002E2C56ACC80&#45;&gt;P000002E2C56A0570</title>
<path fill="none" stroke="black" d="M81,-571.25C81,-552.87 81,-531.1 81,-514.17"/>
<polygon fill="black" stroke="black" points="84.5,-514.32 81,-504.32 77.5,-514.32 84.5,-514.32"/>
</g>
<!-- P000002E2C56AA9D0 -->
<g id="node12" class="node">
<title>P000002E2C56AA9D0</title>
<polygon fill="Plum" stroke="none" points="188,-496.25 188,-518.75 304.25,-518.75 304.25,-496.25 188,-496.25"/>
<polygon fill="none" stroke="Plum" points="188,-496.25 188,-518.75 304.25,-518.75 304.25,-496.25 188,-496.25"/>
<text text-anchor="start" x="191" y="-503.45" font-family="Times New Roman,serif" font-weight="bold" font-size="14.00">onNewQuestStatus</text>
<polygon fill="#ffffff" stroke="none" points="304.25,-496.25 304.25,-518.75 332,-518.75 332,-496.25 304.25,-496.25"/>
<polygon fill="none" stroke="#ffffff" points="304.25,-496.25 304.25,-518.75 332,-518.75 332,-496.25 304.25,-496.25"/>
<text text-anchor="start" x="307.25" y="-503.45" font-family="Times New Roman,serif" font-size="14.00">0</text>
<text text-anchor="start" x="314" y="-503.45" font-family="Times New Roman,serif" font-style="italic" font-size="14.00">ms</text>
<polygon fill="none" stroke="lightgray" points="188,-473.75 188,-496.25 332,-496.25 332,-473.75 188,-473.75"/>
<text text-anchor="start" x="206" y="-479.95" font-family="Times New Roman,serif" font-size="14.00">[game] SaveFamily</text>
<polygon fill="none" stroke="lightgray" points="188,-451.25 188,-473.75 332,-473.75 332,-451.25 188,-451.25"/>
<text text-anchor="start" x="240.12" y="-458.45" font-family="Times New Roman,serif" font-weight="bold" font-size="14.00" fill="darkgreen">DONE</text>
<polygon fill="none" stroke="black" points="187,-450.25 187,-519.75 333,-519.75 333,-450.25 187,-450.25"/>
</g>
<!-- P000002E2C56AA550&#45;&gt;P000002E2C56AA9D0 -->
<g id="edge11" class="edge">
<title>P000002E2C56AA550&#45;&gt;P000002E2C56AA9D0</title>
<path fill="none" stroke="black" d="M260.69,-571.25C260.6,-559.82 260.5,-547.08 260.4,-535"/>
<polygon fill="black" stroke="black" points="263.9,-535.17 260.32,-525.2 256.9,-535.23 263.9,-535.17"/>
</g>
<!-- P000002E2C56AA250 -->
<g id="node13" class="node">
<title>P000002E2C56AA250</title>
<polygon fill="Plum" stroke="none" points="367.75,-507.5 367.75,-530 476.5,-530 476.5,-507.5 367.75,-507.5"/>
<polygon fill="none" stroke="Plum" points="367.75,-507.5 367.75,-530 476.5,-530 476.5,-507.5 367.75,-507.5"/>
<text text-anchor="start" x="370.75" y="-514.7" font-family="Times New Roman,serif" font-weight="bold" font-size="14.00">onNewQuestGoal</text>
<polygon fill="#ffffff" stroke="none" points="476.5,-507.5 476.5,-530 504.25,-530 504.25,-507.5 476.5,-507.5"/>
<polygon fill="none" stroke="#ffffff" points="476.5,-507.5 476.5,-530 504.25,-530 504.25,-507.5 476.5,-507.5"/>
<text text-anchor="start" x="479.5" y="-514.7" font-family="Times New Roman,serif" font-size="14.00">0</text>
<text text-anchor="start" x="486.25" y="-514.7" font-family="Times New Roman,serif" font-style="italic" font-size="14.00">ms</text>
<polygon fill="none" stroke="lightgray" points="367.75,-485 367.75,-507.5 504.25,-507.5 504.25,-485 367.75,-485"/>
<text text-anchor="start" x="388" y="-491.2" font-family="Times New Roman,serif" font-size="14.00">[game] SaveWife</text>
<polygon fill="none" stroke="lightgray" points="367.75,-462.5 367.75,-485 504.25,-485 504.25,-462.5 367.75,-462.5"/>
<text text-anchor="start" x="432.62" y="-468.7" font-family="Times New Roman,serif" font-size="14.00">1</text>
<polygon fill="none" stroke="lightgray" points="367.75,-440 367.75,-462.5 504.25,-462.5 504.25,-440 367.75,-440"/>
<text text-anchor="start" x="430.38" y="-446.2" font-family="Times New Roman,serif" font-size="14.00">...</text>
<polygon fill="none" stroke="black" points="366.75,-439 366.75,-531 505.25,-531 505.25,-439 366.75,-439"/>
</g>
<!-- P000002E2C56AA150&#45;&gt;P000002E2C56AA250 -->
<g id="edge12" class="edge">
<title>P000002E2C56AA150&#45;&gt;P000002E2C56AA250</title>
<path fill="none" stroke="black" d="M436,-582.42C436,-571.63 436,-558.67 436,-545.8"/>
<polygon fill="black" stroke="black" points="439.5,-546.09 436,-536.09 432.5,-546.09 439.5,-546.09"/>
</g>
<!-- P000002E2C56AA4D0 -->
<g id="node14" class="node">
<title>P000002E2C56AA4D0</title>
<polygon fill="MediumAquamarine" stroke="none" points="228.88,-337.75 228.88,-360.25 263.38,-360.25 263.38,-337.75 228.88,-337.75"/>
<polygon fill="none" stroke="MediumAquamarine" points="228.88,-337.75 228.88,-360.25 263.38,-360.25 263.38,-337.75 228.88,-337.75"/>
<text text-anchor="start" x="231.88" y="-344.95" font-family="Times New Roman,serif" font-weight="bold" font-size="14.00">END</text>
<polygon fill="#ffffff" stroke="none" points="263.38,-337.75 263.38,-360.25 291.12,-360.25 291.12,-337.75 263.38,-337.75"/>
<polygon fill="none" stroke="#ffffff" points="263.38,-337.75 263.38,-360.25 291.12,-360.25 291.12,-337.75 263.38,-337.75"/>
<text text-anchor="start" x="266.38" y="-344.95" font-family="Times New Roman,serif" font-size="14.00">0</text>
<text text-anchor="start" x="273.12" y="-344.95" font-family="Times New Roman,serif" font-style="italic" font-size="14.00">ms</text>
<polygon fill="none" stroke="black" points="227.88,-336.75 227.88,-361.25 292.12,-361.25 292.12,-336.75 227.88,-336.75"/>
</g>
<!-- P000002E2C56AA9D0&#45;&gt;P000002E2C56AA4D0 -->
<g id="edge13" class="edge">
<title>P000002E2C56AA9D0&#45;&gt;P000002E2C56AA4D0</title>
<path fill="none" stroke="black" d="M260,-446.32C260,-424.65 260,-397.89 260,-378.07"/>
<polygon fill="black" stroke="black" points="263.5,-378.26 260,-368.26 256.5,-378.26 263.5,-378.26"/>
</g>
<!-- P000002E2C56AA7D0 -->
<g id="node15" class="node">
<title>P000002E2C56AA7D0</title>
<polygon fill="Plum" stroke="none" points="367.75,-371.5 367.75,-394 476.5,-394 476.5,-371.5 367.75,-371.5"/>
<polygon fill="none" stroke="Plum" points="367.75,-371.5 367.75,-394 476.5,-394 476.5,-371.5 367.75,-371.5"/>
<text text-anchor="start" x="370.75" y="-378.7" font-family="Times New Roman,serif" font-weight="bold" font-size="14.00">onNewQuestGoal</text>
<polygon fill="#ffffff" stroke="none" points="476.5,-371.5 476.5,-394 504.25,-394 504.25,-371.5 476.5,-371.5"/>
<polygon fill="none" stroke="#ffffff" points="476.5,-371.5 476.5,-394 504.25,-394 504.25,-371.5 476.5,-371.5"/>
<text text-anchor="start" x="479.5" y="-378.7" font-family="Times New Roman,serif" font-size="14.00">1</text>
<text text-anchor="start" x="486.25" y="-378.7" font-family="Times New Roman,serif" font-style="italic" font-size="14.00">ms</text>
<polygon fill="none" stroke="lightgray" points="367.75,-349 367.75,-371.5 504.25,-371.5 504.25,-349 367.75,-349"/>
<text text-anchor="start" x="382" y="-355.2" font-family="Times New Roman,serif" font-size="14.00">[game] SaveFamily</text>
<polygon fill="none" stroke="lightgray" points="367.75,-326.5 367.75,-349 504.25,-349 504.25,-326.5 367.75,-326.5"/>
<text text-anchor="start" x="432.62" y="-332.7" font-family="Times New Roman,serif" font-size="14.00">1</text>
<polygon fill="none" stroke="lightgray" points="367.75,-304 367.75,-326.5 504.25,-326.5 504.25,-304 367.75,-304"/>
<text text-anchor="start" x="430.38" y="-310.2" font-family="Times New Roman,serif" font-size="14.00">...</text>
<polygon fill="none" stroke="black" points="366.75,-303 366.75,-395 505.25,-395 505.25,-303 366.75,-303"/>
</g>
<!-- P000002E2C56AA250&#45;&gt;P000002E2C56AA7D0 -->
<g id="edge14" class="edge">
<title>P000002E2C56AA250&#45;&gt;P000002E2C56AA7D0</title>
<path fill="none" stroke="black" d="M436,-435.24C436,-427.12 436,-418.6 436,-410.23"/>
<polygon fill="black" stroke="black" points="439.5,-410.46 436,-400.46 432.5,-410.46 439.5,-410.46"/>
</g>
<!-- P000002E2C56AAA50 -->
<g id="node16" class="node">
<title>P000002E2C56AAA50</title>
<polygon fill="Plum" stroke="none" points="364,-235.5 364,-258 480.25,-258 480.25,-235.5 364,-235.5"/>
<polygon fill="none" stroke="Plum" points="364,-235.5 364,-258 480.25,-258 480.25,-235.5 364,-235.5"/>
<text text-anchor="start" x="367" y="-242.7" font-family="Times New Roman,serif" font-weight="bold" font-size="14.00">onNewQuestStatus</text>
<polygon fill="#ffffff" stroke="none" points="480.25,-235.5 480.25,-258 508,-258 508,-235.5 480.25,-235.5"/>
<polygon fill="none" stroke="#ffffff" points="480.25,-235.5 480.25,-258 508,-258 508,-235.5 480.25,-235.5"/>
<text text-anchor="start" x="483.25" y="-242.7" font-family="Times New Roman,serif" font-size="14.00">0</text>
<text text-anchor="start" x="490" y="-242.7" font-family="Times New Roman,serif" font-style="italic" font-size="14.00">ms</text>
<polygon fill="none" stroke="lightgray" points="364,-213 364,-235.5 508,-235.5 508,-213 364,-213"/>
<text text-anchor="start" x="388" y="-219.2" font-family="Times New Roman,serif" font-size="14.00">[game] SaveWife</text>
<polygon fill="none" stroke="lightgray" points="364,-190.5 364,-213 508,-213 508,-190.5 364,-190.5"/>
<text text-anchor="start" x="416.12" y="-197.7" font-family="Times New Roman,serif" font-weight="bold" font-size="14.00" fill="darkgreen">DONE</text>
<polygon fill="none" stroke="black" points="363,-189.5 363,-259 509,-259 509,-189.5 363,-189.5"/>
</g>
<!-- P000002E2C56AA7D0&#45;&gt;P000002E2C56AAA50 -->
<g id="edge15" class="edge">
<title>P000002E2C56AA7D0&#45;&gt;P000002E2C56AAA50</title>
<path fill="none" stroke="black" d="M436,-299.13C436,-290.95 436,-282.46 436,-274.28"/>
<polygon fill="black" stroke="black" points="439.5,-274.49 436,-264.49 432.5,-274.49 439.5,-274.49"/>
</g>
<!-- P000002E2C56AA750 -->
<g id="node17" class="node">
<title>P000002E2C56AA750</title>
<polygon fill="Plum" stroke="none" points="364,-122 364,-144.5 480.25,-144.5 480.25,-122 364,-122"/>
<polygon fill="none" stroke="Plum" points="364,-122 364,-144.5 480.25,-144.5 480.25,-122 364,-122"/>
<text text-anchor="start" x="367" y="-129.2" font-family="Times New Roman,serif" font-weight="bold" font-size="14.00">onNewQuestStatus</text>
<polygon fill="#ffffff" stroke="none" points="480.25,-122 480.25,-144.5 508,-144.5 508,-122 480.25,-122"/>
<polygon fill="none" stroke="#ffffff" points="480.25,-122 480.25,-144.5 508,-144.5 508,-122 480.25,-122"/>
<text text-anchor="start" x="483.25" y="-129.2" font-family="Times New Roman,serif" font-size="14.00">0</text>
<text text-anchor="start" x="490" y="-129.2" font-family="Times New Roman,serif" font-style="italic" font-size="14.00">ms</text>
<polygon fill="none" stroke="lightgray" points="364,-99.5 364,-122 508,-122 508,-99.5 364,-99.5"/>
<text text-anchor="start" x="382" y="-105.7" font-family="Times New Roman,serif" font-size="14.00">[game] SaveFamily</text>
<polygon fill="none" stroke="lightgray" points="364,-77 364,-99.5 508,-99.5 508,-77 364,-77"/>
<text text-anchor="start" x="416.12" y="-84.2" font-family="Times New Roman,serif" font-weight="bold" font-size="14.00" fill="darkgreen">DONE</text>
<polygon fill="none" stroke="black" points="363,-76 363,-145.5 509,-145.5 509,-76 363,-76"/>
</g>
<!-- P000002E2C56AAA50&#45;&gt;P000002E2C56AA750 -->
<g id="edge16" class="edge">
<title>P000002E2C56AAA50&#45;&gt;P000002E2C56AA750</title>
<path fill="none" stroke="black" d="M436,-185.5C436,-177.6 436,-169.16 436,-160.91"/>
<polygon fill="black" stroke="black" points="439.5,-160.97 436,-150.97 432.5,-160.97 439.5,-160.97"/>
</g>
<!-- P000002E2C56AA450 -->
<g id="node18" class="node">
<title>P000002E2C56AA450</title>
<polygon fill="MediumAquamarine" stroke="none" points="404.88,-6.75 404.88,-29.25 439.38,-29.25 439.38,-6.75 404.88,-6.75"/>
<polygon fill="none" stroke="MediumAquamarine" points="404.88,-6.75 404.88,-29.25 439.38,-29.25 439.38,-6.75 404.88,-6.75"/>
<text text-anchor="start" x="407.88" y="-13.95" font-family="Times New Roman,serif" font-weight="bold" font-size="14.00">END</text>
<polygon fill="#ffffff" stroke="none" points="439.38,-6.75 439.38,-29.25 467.12,-29.25 467.12,-6.75 439.38,-6.75"/>
<polygon fill="none" stroke="#ffffff" points="439.38,-6.75 439.38,-29.25 467.12,-29.25 467.12,-6.75 439.38,-6.75"/>
<text text-anchor="start" x="442.38" y="-13.95" font-family="Times New Roman,serif" font-size="14.00">0</text>
<text text-anchor="start" x="449.12" y="-13.95" font-family="Times New Roman,serif" font-style="italic" font-size="14.00">ms</text>
<polygon fill="none" stroke="black" points="403.88,-5.75 403.88,-30.25 468.12,-30.25 468.12,-5.75 403.88,-5.75"/>
</g>
<!-- P000002E2C56AA750&#45;&gt;P000002E2C56AA450 -->
<g id="edge17" class="edge">
<title>P000002E2C56AA750&#45;&gt;P000002E2C56AA450</title>
<path fill="none" stroke="black" d="M436,-72.05C436,-63.64 436,-54.87 436,-46.94"/>
<polygon fill="black" stroke="black" points="439.5,-47.22 436,-37.22 432.5,-47.22 439.5,-47.22"/>
</g>
</g>
</svg>
